<?xml version="1.0" encoding="us-ascii" standalone="no"?><svg xmlns="http://www.w3.org/2000/svg" xmlns:xlink="http://www.w3.org/1999/xlink" contentStyleType="text/css" height="543px" preserveAspectRatio="none" style="width:707px;height:543px;background:#FFFFFF;" version="1.1" viewBox="0 0 707 543" width="707px" zoomAndPan="magnify"><defs/><g><text fill="#000000" font-family="sans-serif" font-size="14" font-weight="bold" lengthAdjust="spacing" textLength="211" x="247" y="27.9951">Cancelamento de Consulta</text><rect fill="#FFFFFF" height="229.9297" style="stroke:#181818;stroke-width:1.0;" width="10" x="433" y="215.125"/><line style="stroke:#181818;stroke-width:0.5;stroke-dasharray:5.0,5.0;" x1="125" x2="125" y1="118.5938" y2="463.0547"/><line style="stroke:#181818;stroke-width:0.5;stroke-dasharray:5.0,5.0;" x1="437.5" x2="437.5" y1="118.5938" y2="463.0547"/><line style="stroke:#181818;stroke-width:0.5;stroke-dasharray:5.0,5.0;" x1="661" x2="661" y1="118.5938" y2="463.0547"/><text fill="#000000" font-family="sans-serif" font-size="14" lengthAdjust="spacing" textLength="32" x="106" y="115.292">User</text><ellipse cx="125" cy="50.7969" fill="#E2E2F0" rx="8" ry="8" style="stroke:#181818;stroke-width:0.5;"/><path d="M125,58.7969 L125,85.7969 M112,66.7969 L138,66.7969 M125,85.7969 L112,100.7969 M125,85.7969 L138,100.7969 " fill="none" style="stroke:#181818;stroke-width:0.5;"/><text fill="#000000" font-family="sans-serif" font-size="14" lengthAdjust="spacing" textLength="32" x="106" y="475.0498">User</text><ellipse cx="125" cy="486.8516" fill="#E2E2F0" rx="8" ry="8" style="stroke:#181818;stroke-width:0.5;"/><path d="M125,494.8516 L125,521.8516 M112,502.8516 L138,502.8516 M125,521.8516 L112,536.8516 M125,521.8516 L138,536.8516 " fill="none" style="stroke:#181818;stroke-width:0.5;"/><rect fill="#E2E2F0" height="30.2969" rx="2.5" ry="2.5" style="stroke:#181818;stroke-width:0.5;" width="157" x="359.5" y="87.2969"/><text fill="#000000" font-family="sans-serif" font-size="14" lengthAdjust="spacing" textLength="143" x="366.5" y="107.292">Appointment Service</text><rect fill="#E2E2F0" height="30.2969" rx="2.5" ry="2.5" style="stroke:#181818;stroke-width:0.5;" width="157" x="359.5" y="462.0547"/><text fill="#000000" font-family="sans-serif" font-size="14" lengthAdjust="spacing" textLength="143" x="366.5" y="482.0498">Appointment Service</text><rect fill="#E2E2F0" height="30.2969" rx="2.5" ry="2.5" style="stroke:#181818;stroke-width:0.5;" width="80" x="621" y="87.2969"/><text fill="#000000" font-family="sans-serif" font-size="14" lengthAdjust="spacing" textLength="66" x="628" y="107.292">Database</text><rect fill="#E2E2F0" height="30.2969" rx="2.5" ry="2.5" style="stroke:#181818;stroke-width:0.5;" width="80" x="621" y="462.0547"/><text fill="#000000" font-family="sans-serif" font-size="14" lengthAdjust="spacing" textLength="66" x="628" y="482.0498">Database</text><rect fill="#FFFFFF" height="229.9297" style="stroke:#181818;stroke-width:1.0;" width="10" x="433" y="215.125"/><path d="M5,133.5938 L5,173.5938 L246,173.5938 L246,143.5938 L236,133.5938 L5,133.5938 " fill="#FEFFDD" style="stroke:#181818;stroke-width:0.5;"/><path d="M236,133.5938 L236,143.5938 L246,143.5938 L236,133.5938 " fill="#FEFFDD" style="stroke:#181818;stroke-width:0.5;"/><text fill="#000000" font-family="sans-serif" font-size="13" lengthAdjust="spacing" textLength="216" x="11" y="150.6606">Neste exemplo, o usu&#225;rio poderia</text><text fill="#000000" font-family="sans-serif" font-size="13" lengthAdjust="spacing" textLength="45" x="11" y="165.7935">ser um</text><text fill="#000000" font-family="sans-serif" font-size="13" font-weight="bold" lengthAdjust="spacing" textLength="54" x="60" y="165.7935">m&#233;dico</text><text fill="#000000" font-family="sans-serif" font-size="13" lengthAdjust="spacing" textLength="41" x="118" y="165.7935">ou um</text><text fill="#000000" font-family="sans-serif" font-size="13" font-weight="bold" lengthAdjust="spacing" textLength="64" x="163" y="165.7935">paciente</text><text fill="#000000" font-family="sans-serif" font-size="13" lengthAdjust="spacing" textLength="4" x="227" y="165.7935">.</text><polygon fill="#181818" points="421,211.125,431,215.125,421,219.125,425,215.125" style="stroke:#181818;stroke-width:1.0;"/><line style="stroke:#181818;stroke-width:1.0;" x1="125" x2="427" y1="215.125" y2="215.125"/><text fill="#000000" font-family="sans-serif" font-size="13" lengthAdjust="spacing" textLength="289" x="132" y="194.9263">POST /appointments/{appointmentId}/cancel</text><text fill="#000000" font-family="sans-serif" font-size="13" lengthAdjust="spacing" textLength="78" x="132" y="210.0591">(Bearer JWT)</text><line style="stroke:#181818;stroke-width:1.0;" x1="443" x2="485" y1="244.2578" y2="244.2578"/><line style="stroke:#181818;stroke-width:1.0;" x1="485" x2="485" y1="244.2578" y2="257.2578"/><line style="stroke:#181818;stroke-width:1.0;" x1="444" x2="485" y1="257.2578" y2="257.2578"/><polygon fill="#181818" points="454,253.2578,444,257.2578,454,261.2578,450,257.2578" style="stroke:#181818;stroke-width:1.0;"/><text fill="#000000" font-family="sans-serif" font-size="13" lengthAdjust="spacing" textLength="199" x="450" y="239.1919">Deve ser informado um motivo</text><polygon fill="#181818" points="649,282.3906,659,286.3906,649,290.3906,653,286.3906" style="stroke:#181818;stroke-width:1.0;"/><line style="stroke:#181818;stroke-width:1.0;" x1="443" x2="655" y1="286.3906" y2="286.3906"/><text fill="#000000" font-family="sans-serif" font-size="13" lengthAdjust="spacing" textLength="121" x="450" y="281.3247">Carrega a consulta</text><polygon fill="#181818" points="454,311.5234,444,315.5234,454,319.5234,450,315.5234" style="stroke:#181818;stroke-width:1.0;"/><line style="stroke:#181818;stroke-width:1.0;stroke-dasharray:2.0,2.0;" x1="448" x2="660" y1="315.5234" y2="315.5234"/><text fill="#000000" font-family="sans-serif" font-size="13" lengthAdjust="spacing" textLength="120" x="460" y="310.4575">Retorna a consulta</text><line style="stroke:#181818;stroke-width:1.0;" x1="443" x2="485" y1="344.6563" y2="344.6563"/><line style="stroke:#181818;stroke-width:1.0;" x1="485" x2="485" y1="344.6563" y2="357.6563"/><line style="stroke:#181818;stroke-width:1.0;" x1="444" x2="485" y1="357.6563" y2="357.6563"/><polygon fill="#181818" points="454,353.6563,444,357.6563,454,361.6563,450,357.6563" style="stroke:#181818;stroke-width:1.0;"/><text fill="#000000" font-family="sans-serif" font-size="13" lengthAdjust="spacing" textLength="121" x="450" y="339.5903">Cancela a consulta</text><polygon fill="#181818" points="649,382.7891,659,386.7891,649,390.7891,653,386.7891" style="stroke:#181818;stroke-width:1.0;"/><line style="stroke:#181818;stroke-width:1.0;" x1="443" x2="655" y1="386.7891" y2="386.7891"/><text fill="#000000" font-family="sans-serif" font-size="13" lengthAdjust="spacing" textLength="105" x="450" y="381.7231">Salva a consulta</text><polygon fill="#181818" points="454,411.9219,444,415.9219,454,419.9219,450,415.9219" style="stroke:#181818;stroke-width:1.0;"/><line style="stroke:#181818;stroke-width:1.0;stroke-dasharray:2.0,2.0;" x1="448" x2="660" y1="415.9219" y2="415.9219"/><text fill="#000000" font-family="sans-serif" font-size="13" lengthAdjust="spacing" textLength="93" x="460" y="410.856">Consulta salva</text><polygon fill="#181818" points="136,441.0547,126,445.0547,136,449.0547,132,445.0547" style="stroke:#181818;stroke-width:1.0;"/><line style="stroke:#181818;stroke-width:1.0;stroke-dasharray:2.0,2.0;" x1="130" x2="437" y1="445.0547" y2="445.0547"/><text fill="#000000" font-family="sans-serif" font-size="13" lengthAdjust="spacing" textLength="46" x="142" y="439.9888">200 OK</text><!--SRC=[bLB1IWCn4BtdAuOzwM9jyRW7GUr51IjknOiWOp9AO3SJakmYY1_ZqU_eZvbqkxI5NR6tpCkyDo_p4dIe2AxGIAgm9XCOLApP-AOAA0JAm0woHqyk0_JGn8Emw8AMsg89a5rOozg4n8MINAibhJjnYx_u3jydpZ7WA_gkMsqA8Gm70cx9TRFkoCUQFgYs5Py0HxHPVJlDO5cHqoXyQgqXp-lLZzAIynouwH2BKiVvbEUdWeo2f2r4qeN9-P330kuNvHAcErT- -hbJNQklgLnlwzaSNHAwA7Npj3nURqgt6BqEFNm06tKmfvOWMTJcZLsDYjDZQexoF2RKhw-8KJf7xmW8iW-nluJ9sCW7YYcRFT8XZZVVvn_qhSyIg_P0b_sl19-umoCYDyLRmDbi1ejReUZFNCGl]--></g></svg>