<?xml version="1.0" encoding="us-ascii" standalone="no"?><svg xmlns="http://www.w3.org/2000/svg" xmlns:xlink="http://www.w3.org/1999/xlink" contentStyleType="text/css" height="543px" preserveAspectRatio="none" style="width:668px;height:543px;background:#FFFFFF;" version="1.1" viewBox="0 0 668 543" width="668px" zoomAndPan="magnify"><defs/><g><text fill="#000000" font-family="sans-serif" font-size="14" font-weight="bold" lengthAdjust="spacing" textLength="253" x="206.5" y="27.9951">Cancelling an Appointment Flow</text><rect fill="#FFFFFF" height="229.9297" style="stroke:#181818;stroke-width:1.0;" width="10" x="421" y="215.125"/><line style="stroke:#181818;stroke-width:0.5;stroke-dasharray:5.0,5.0;" x1="113" x2="113" y1="118.5938" y2="463.0547"/><line style="stroke:#181818;stroke-width:0.5;stroke-dasharray:5.0,5.0;" x1="425.5" x2="425.5" y1="118.5938" y2="463.0547"/><line style="stroke:#181818;stroke-width:0.5;stroke-dasharray:5.0,5.0;" x1="622" x2="622" y1="118.5938" y2="463.0547"/><text fill="#000000" font-family="sans-serif" font-size="14" lengthAdjust="spacing" textLength="32" x="94" y="115.292">User</text><ellipse cx="113" cy="50.7969" fill="#E2E2F0" rx="8" ry="8" style="stroke:#181818;stroke-width:0.5;"/><path d="M113,58.7969 L113,85.7969 M100,66.7969 L126,66.7969 M113,85.7969 L100,100.7969 M113,85.7969 L126,100.7969 " fill="none" style="stroke:#181818;stroke-width:0.5;"/><text fill="#000000" font-family="sans-serif" font-size="14" lengthAdjust="spacing" textLength="32" x="94" y="475.0498">User</text><ellipse cx="113" cy="486.8516" fill="#E2E2F0" rx="8" ry="8" style="stroke:#181818;stroke-width:0.5;"/><path d="M113,494.8516 L113,521.8516 M100,502.8516 L126,502.8516 M113,521.8516 L100,536.8516 M113,521.8516 L126,536.8516 " fill="none" style="stroke:#181818;stroke-width:0.5;"/><rect fill="#E2E2F0" height="30.2969" rx="2.5" ry="2.5" style="stroke:#181818;stroke-width:0.5;" width="157" x="347.5" y="87.2969"/><text fill="#000000" font-family="sans-serif" font-size="14" lengthAdjust="spacing" textLength="143" x="354.5" y="107.292">Appointment Service</text><rect fill="#E2E2F0" height="30.2969" rx="2.5" ry="2.5" style="stroke:#181818;stroke-width:0.5;" width="157" x="347.5" y="462.0547"/><text fill="#000000" font-family="sans-serif" font-size="14" lengthAdjust="spacing" textLength="143" x="354.5" y="482.0498">Appointment Service</text><rect fill="#E2E2F0" height="30.2969" rx="2.5" ry="2.5" style="stroke:#181818;stroke-width:0.5;" width="80" x="582" y="87.2969"/><text fill="#000000" font-family="sans-serif" font-size="14" lengthAdjust="spacing" textLength="66" x="589" y="107.292">Database</text><rect fill="#E2E2F0" height="30.2969" rx="2.5" ry="2.5" style="stroke:#181818;stroke-width:0.5;" width="80" x="582" y="462.0547"/><text fill="#000000" font-family="sans-serif" font-size="14" lengthAdjust="spacing" textLength="66" x="589" y="482.0498">Database</text><rect fill="#FFFFFF" height="229.9297" style="stroke:#181818;stroke-width:1.0;" width="10" x="421" y="215.125"/><path d="M5,133.5938 L5,173.5938 L222,173.5938 L222,143.5938 L212,133.5938 L5,133.5938 " fill="#FEFFDD" style="stroke:#181818;stroke-width:0.5;"/><path d="M212,133.5938 L212,143.5938 L222,143.5938 L212,133.5938 " fill="#FEFFDD" style="stroke:#181818;stroke-width:0.5;"/><text fill="#000000" font-family="sans-serif" font-size="13" lengthAdjust="spacing" textLength="196" x="11" y="150.6606">In this example, the user could</text><text fill="#000000" font-family="sans-serif" font-size="13" lengthAdjust="spacing" textLength="28" x="11" y="165.7935">be a</text><text fill="#000000" font-family="sans-serif" font-size="13" font-weight="bold" lengthAdjust="spacing" textLength="48" x="43" y="165.7935">doctor</text><text fill="#000000" font-family="sans-serif" font-size="13" lengthAdjust="spacing" textLength="25" x="95" y="165.7935">or a</text><text fill="#000000" font-family="sans-serif" font-size="13" font-weight="bold" lengthAdjust="spacing" textLength="53" x="124" y="165.7935">patient</text><text fill="#000000" font-family="sans-serif" font-size="13" lengthAdjust="spacing" textLength="4" x="177" y="165.7935">.</text><polygon fill="#181818" points="409,211.125,419,215.125,409,219.125,413,215.125" style="stroke:#181818;stroke-width:1.0;"/><line style="stroke:#181818;stroke-width:1.0;" x1="113" x2="415" y1="215.125" y2="215.125"/><text fill="#000000" font-family="sans-serif" font-size="13" lengthAdjust="spacing" textLength="289" x="120" y="194.9263">POST /appointments/{appointmentId}/cancel</text><text fill="#000000" font-family="sans-serif" font-size="13" lengthAdjust="spacing" textLength="78" x="120" y="210.0591">(Bearer JWT)</text><line style="stroke:#181818;stroke-width:1.0;" x1="431" x2="473" y1="244.2578" y2="244.2578"/><line style="stroke:#181818;stroke-width:1.0;" x1="473" x2="473" y1="244.2578" y2="257.2578"/><line style="stroke:#181818;stroke-width:1.0;" x1="432" x2="473" y1="257.2578" y2="257.2578"/><polygon fill="#181818" points="442,253.2578,432,257.2578,442,261.2578,438,257.2578" style="stroke:#181818;stroke-width:1.0;"/><text fill="#000000" font-family="sans-serif" font-size="13" lengthAdjust="spacing" textLength="172" x="438" y="239.1919">Must be informed a reason</text><polygon fill="#181818" points="610,282.3906,620,286.3906,610,290.3906,614,286.3906" style="stroke:#181818;stroke-width:1.0;"/><line style="stroke:#181818;stroke-width:1.0;" x1="431" x2="616" y1="286.3906" y2="286.3906"/><text fill="#000000" font-family="sans-serif" font-size="13" lengthAdjust="spacing" textLength="142" x="438" y="281.3247">Load the appointment</text><polygon fill="#181818" points="442,311.5234,432,315.5234,442,319.5234,438,315.5234" style="stroke:#181818;stroke-width:1.0;"/><line style="stroke:#181818;stroke-width:1.0;stroke-dasharray:2.0,2.0;" x1="436" x2="621" y1="315.5234" y2="315.5234"/><text fill="#000000" font-family="sans-serif" font-size="13" lengthAdjust="spacing" textLength="160" x="448" y="310.4575">Returns the appointment</text><line style="stroke:#181818;stroke-width:1.0;" x1="431" x2="473" y1="344.6563" y2="344.6563"/><line style="stroke:#181818;stroke-width:1.0;" x1="473" x2="473" y1="344.6563" y2="357.6563"/><line style="stroke:#181818;stroke-width:1.0;" x1="432" x2="473" y1="357.6563" y2="357.6563"/><polygon fill="#181818" points="442,353.6563,432,357.6563,442,361.6563,438,357.6563" style="stroke:#181818;stroke-width:1.0;"/><text fill="#000000" font-family="sans-serif" font-size="13" lengthAdjust="spacing" textLength="154" x="438" y="339.5903">Cancel the appointment</text><polygon fill="#181818" points="610,382.7891,620,386.7891,610,390.7891,614,386.7891" style="stroke:#181818;stroke-width:1.0;"/><line style="stroke:#181818;stroke-width:1.0;" x1="431" x2="616" y1="386.7891" y2="386.7891"/><text fill="#000000" font-family="sans-serif" font-size="13" lengthAdjust="spacing" textLength="143" x="438" y="381.7231">Save the appointment</text><polygon fill="#181818" points="442,411.9219,432,415.9219,442,419.9219,438,415.9219" style="stroke:#181818;stroke-width:1.0;"/><line style="stroke:#181818;stroke-width:1.0;stroke-dasharray:2.0,2.0;" x1="436" x2="621" y1="415.9219" y2="415.9219"/><text fill="#000000" font-family="sans-serif" font-size="13" lengthAdjust="spacing" textLength="125" x="448" y="410.856">Appointment saved</text><polygon fill="#181818" points="124,441.0547,114,445.0547,124,449.0547,120,445.0547" style="stroke:#181818;stroke-width:1.0;"/><line style="stroke:#181818;stroke-width:1.0;stroke-dasharray:2.0,2.0;" x1="118" x2="425" y1="445.0547" y2="445.0547"/><text fill="#000000" font-family="sans-serif" font-size="13" lengthAdjust="spacing" textLength="46" x="130" y="439.9888">200 OK</text><!--SRC=[dL9BIyGm4BxdLmmzQN7juh47mGV2-c35hdWHP3OPDP0c8Kch8FvtqzHbAxQYtZAFxp4p2J8eWXFKd9II-WbGmv6rHkfGamvmfimBOyY3SP3TUd8Pe8ScFfX55oIN5cDRDiHKv5h9ANNYDl_W-_nNu2a6NAFlkyLdm9WsWS2qv7gjXORmB3tGAzPMqLwCA5M0cqO9jYP0o7DXEgDv3j5j5riCCYhd-JuZBQ0ZPIp1PeTZraguNbOhA0ObNxmDeeLuBtXQrhtUEIPqaUhyRhMRLYHRZAR79Xx9JJguQdo0E8_KZyRL9E8WZj0RFSMoMLe9bmP5sioWastAC9jIlA7GEEs_8V_Yklz1lwNOMgwmfNzO7dut7od4k5A4TzSkuM0-X-K54_JZcTW7]--></g></svg>