<?xml version="1.0" encoding="us-ascii" standalone="no"?><svg xmlns="http://www.w3.org/2000/svg" xmlns:xlink="http://www.w3.org/1999/xlink" contentStyleType="text/css" height="501px" preserveAspectRatio="none" style="width:706px;height:501px;background:#FFFFFF;" version="1.1" viewBox="0 0 706 501" width="706px" zoomAndPan="magnify"><defs/><g><text fill="#000000" font-family="sans-serif" font-size="14" font-weight="bold" lengthAdjust="spacing" textLength="258" x="223" y="27.9951">Confirming an Appointment Flow</text><rect fill="#FFFFFF" height="187.7969" style="stroke:#181818;stroke-width:1.0;" width="10" x="428" y="215.125"/><line style="stroke:#181818;stroke-width:0.5;stroke-dasharray:5.0,5.0;" x1="113" x2="113" y1="118.5938" y2="420.9219"/><line style="stroke:#181818;stroke-width:0.5;stroke-dasharray:5.0,5.0;" x1="432.5" x2="432.5" y1="118.5938" y2="420.9219"/><line style="stroke:#181818;stroke-width:0.5;stroke-dasharray:5.0,5.0;" x1="660" x2="660" y1="118.5938" y2="420.9219"/><text fill="#000000" font-family="sans-serif" font-size="14" lengthAdjust="spacing" textLength="32" x="94" y="115.292">User</text><ellipse cx="113" cy="50.7969" fill="#E2E2F0" rx="8" ry="8" style="stroke:#181818;stroke-width:0.5;"/><path d="M113,58.7969 L113,85.7969 M100,66.7969 L126,66.7969 M113,85.7969 L100,100.7969 M113,85.7969 L126,100.7969 " fill="none" style="stroke:#181818;stroke-width:0.5;"/><text fill="#000000" font-family="sans-serif" font-size="14" lengthAdjust="spacing" textLength="32" x="94" y="432.917">User</text><ellipse cx="113" cy="444.7188" fill="#E2E2F0" rx="8" ry="8" style="stroke:#181818;stroke-width:0.5;"/><path d="M113,452.7188 L113,479.7188 M100,460.7188 L126,460.7188 M113,479.7188 L100,494.7188 M113,479.7188 L126,494.7188 " fill="none" style="stroke:#181818;stroke-width:0.5;"/><rect fill="#E2E2F0" height="30.2969" rx="2.5" ry="2.5" style="stroke:#181818;stroke-width:0.5;" width="157" x="354.5" y="87.2969"/><text fill="#000000" font-family="sans-serif" font-size="14" lengthAdjust="spacing" textLength="143" x="361.5" y="107.292">Appointment Service</text><rect fill="#E2E2F0" height="30.2969" rx="2.5" ry="2.5" style="stroke:#181818;stroke-width:0.5;" width="157" x="354.5" y="419.9219"/><text fill="#000000" font-family="sans-serif" font-size="14" lengthAdjust="spacing" textLength="143" x="361.5" y="439.917">Appointment Service</text><rect fill="#E2E2F0" height="30.2969" rx="2.5" ry="2.5" style="stroke:#181818;stroke-width:0.5;" width="80" x="620" y="87.2969"/><text fill="#000000" font-family="sans-serif" font-size="14" lengthAdjust="spacing" textLength="66" x="627" y="107.292">Database</text><rect fill="#E2E2F0" height="30.2969" rx="2.5" ry="2.5" style="stroke:#181818;stroke-width:0.5;" width="80" x="620" y="419.9219"/><text fill="#000000" font-family="sans-serif" font-size="14" lengthAdjust="spacing" textLength="66" x="627" y="439.917">Database</text><rect fill="#FFFFFF" height="187.7969" style="stroke:#181818;stroke-width:1.0;" width="10" x="428" y="215.125"/><path d="M5,133.5938 L5,173.5938 L221,173.5938 L221,143.5938 L211,133.5938 L5,133.5938 " fill="#FEFFDD" style="stroke:#181818;stroke-width:0.5;"/><path d="M211,133.5938 L211,143.5938 L221,143.5938 L211,133.5938 " fill="#FEFFDD" style="stroke:#181818;stroke-width:0.5;"/><text fill="#000000" font-family="sans-serif" font-size="13" lengthAdjust="spacing" textLength="195" x="11" y="150.6606">In this example, the user must</text><text fill="#000000" font-family="sans-serif" font-size="13" lengthAdjust="spacing" textLength="28" x="11" y="165.7935">be a</text><text fill="#000000" font-family="sans-serif" font-size="13" font-weight="bold" lengthAdjust="spacing" textLength="48" x="43" y="165.7935">doctor</text><text fill="#000000" font-family="sans-serif" font-size="13" lengthAdjust="spacing" textLength="4" x="91" y="165.7935">.</text><polygon fill="#181818" points="416,211.125,426,215.125,416,219.125,420,215.125" style="stroke:#181818;stroke-width:1.0;"/><line style="stroke:#181818;stroke-width:1.0;" x1="113" x2="422" y1="215.125" y2="215.125"/><text fill="#000000" font-family="sans-serif" font-size="13" lengthAdjust="spacing" textLength="296" x="120" y="194.9263">POST /appointments/{appointmentId}/confirm</text><text fill="#000000" font-family="sans-serif" font-size="13" lengthAdjust="spacing" textLength="78" x="120" y="210.0591">(Bearer JWT)</text><polygon fill="#181818" points="648,240.2578,658,244.2578,648,248.2578,652,244.2578" style="stroke:#181818;stroke-width:1.0;"/><line style="stroke:#181818;stroke-width:1.0;" x1="438" x2="654" y1="244.2578" y2="244.2578"/><text fill="#000000" font-family="sans-serif" font-size="13" lengthAdjust="spacing" textLength="142" x="445" y="239.1919">Load the appointment</text><polygon fill="#181818" points="449,269.3906,439,273.3906,449,277.3906,445,273.3906" style="stroke:#181818;stroke-width:1.0;"/><line style="stroke:#181818;stroke-width:1.0;stroke-dasharray:2.0,2.0;" x1="443" x2="659" y1="273.3906" y2="273.3906"/><text fill="#000000" font-family="sans-serif" font-size="13" lengthAdjust="spacing" textLength="160" x="455" y="268.3247">Returns the appointment</text><line style="stroke:#181818;stroke-width:1.0;" x1="438" x2="480" y1="302.5234" y2="302.5234"/><line style="stroke:#181818;stroke-width:1.0;" x1="480" x2="480" y1="302.5234" y2="315.5234"/><line style="stroke:#181818;stroke-width:1.0;" x1="439" x2="480" y1="315.5234" y2="315.5234"/><polygon fill="#181818" points="449,311.5234,439,315.5234,449,319.5234,445,315.5234" style="stroke:#181818;stroke-width:1.0;"/><text fill="#000000" font-family="sans-serif" font-size="13" lengthAdjust="spacing" textLength="203" x="445" y="297.4575">Confirm or not the appointment</text><polygon fill="#181818" points="648,340.6563,658,344.6563,648,348.6563,652,344.6563" style="stroke:#181818;stroke-width:1.0;"/><line style="stroke:#181818;stroke-width:1.0;" x1="438" x2="654" y1="344.6563" y2="344.6563"/><text fill="#000000" font-family="sans-serif" font-size="13" lengthAdjust="spacing" textLength="143" x="445" y="339.5903">Save the appointment</text><polygon fill="#181818" points="449,369.7891,439,373.7891,449,377.7891,445,373.7891" style="stroke:#181818;stroke-width:1.0;"/><line style="stroke:#181818;stroke-width:1.0;stroke-dasharray:2.0,2.0;" x1="443" x2="659" y1="373.7891" y2="373.7891"/><text fill="#000000" font-family="sans-serif" font-size="13" lengthAdjust="spacing" textLength="125" x="455" y="368.7231">Appointment saved</text><polygon fill="#181818" points="124,398.9219,114,402.9219,124,406.9219,120,402.9219" style="stroke:#181818;stroke-width:1.0;"/><line style="stroke:#181818;stroke-width:1.0;stroke-dasharray:2.0,2.0;" x1="118" x2="432" y1="402.9219" y2="402.9219"/><text fill="#000000" font-family="sans-serif" font-size="13" lengthAdjust="spacing" textLength="46" x="130" y="397.856">200 OK</text><!--SRC=[dLB1IiD04BtFLmmvQR2cUCn1q8fG5IgcuaKeq-oe2ybks9r4GVntDqbB8wOYlUtCl7dpvisAbe9nPisBTgKshqW6BwhAQYCb6y7hmhu3K2xMOVJesKL87klmW8gSw5nN563Hi2TZr-YSEoJjyYlVvtysNf7GcdoFLfi0m5XXj0sxVjRSeBnfZ_n1PLNmIOYugs1PUu4r8s4SAzlgZEDJOAEmfG3eG9FpCI4ftY-o9IQ3aay-1z5SVILvRyspERfaSe7hvcbvt3cY6meQnnOSoRKIjjkbU6T9TIiCaB0jusIVt0UMsXd_gtFFl56EpQant3COz5-gdVIC6Zv0-l1_-42XnYU5zlPWAPvDfxYu1SL_6WtV]--></g></svg>