<?xml version="1.0" encoding="us-ascii" standalone="no"?><svg xmlns="http://www.w3.org/2000/svg" xmlns:xlink="http://www.w3.org/1999/xlink" contentStyleType="text/css" height="574px" preserveAspectRatio="none" style="width:673px;height:574px;background:#FFFFFF;" version="1.1" viewBox="0 0 673 574" width="673px" zoomAndPan="magnify"><defs/><g><text fill="#000000" font-family="sans-serif" font-size="14" font-weight="bold" lengthAdjust="spacing" textLength="239" x="216.25" y="27.9951">Creating an Appointment Flow</text><rect fill="#FFFFFF" height="260.1953" style="stroke:#181818;stroke-width:1.0;" width="10" x="263" y="215.125"/><line style="stroke:#181818;stroke-width:0.5;stroke-dasharray:5.0,5.0;" x1="113" x2="113" y1="118.5938" y2="493.3203"/><line style="stroke:#181818;stroke-width:0.5;stroke-dasharray:5.0,5.0;" x1="267.5" x2="267.5" y1="118.5938" y2="493.3203"/><line style="stroke:#181818;stroke-width:0.5;stroke-dasharray:5.0,5.0;" x1="501.5" x2="501.5" y1="118.5938" y2="493.3203"/><line style="stroke:#181818;stroke-width:0.5;stroke-dasharray:5.0,5.0;" x1="627.5" x2="627.5" y1="118.5938" y2="493.3203"/><text fill="#000000" font-family="sans-serif" font-size="14" lengthAdjust="spacing" textLength="32" x="94" y="115.292">User</text><ellipse cx="113" cy="50.7969" fill="#E2E2F0" rx="8" ry="8" style="stroke:#181818;stroke-width:0.5;"/><path d="M113,58.7969 L113,85.7969 M100,66.7969 L126,66.7969 M113,85.7969 L100,100.7969 M113,85.7969 L126,100.7969 " fill="none" style="stroke:#181818;stroke-width:0.5;"/><text fill="#000000" font-family="sans-serif" font-size="14" lengthAdjust="spacing" textLength="32" x="94" y="505.3154">User</text><ellipse cx="113" cy="517.1172" fill="#E2E2F0" rx="8" ry="8" style="stroke:#181818;stroke-width:0.5;"/><path d="M113,525.1172 L113,552.1172 M100,533.1172 L126,533.1172 M113,552.1172 L100,567.1172 M113,552.1172 L126,567.1172 " fill="none" style="stroke:#181818;stroke-width:0.5;"/><rect fill="#E2E2F0" height="30.2969" rx="2.5" ry="2.5" style="stroke:#181818;stroke-width:0.5;" width="157" x="189.5" y="87.2969"/><text fill="#000000" font-family="sans-serif" font-size="14" lengthAdjust="spacing" textLength="143" x="196.5" y="107.292">Appointment Service</text><rect fill="#E2E2F0" height="30.2969" rx="2.5" ry="2.5" style="stroke:#181818;stroke-width:0.5;" width="157" x="189.5" y="492.3203"/><text fill="#000000" font-family="sans-serif" font-size="14" lengthAdjust="spacing" textLength="143" x="196.5" y="512.3154">Appointment Service</text><path d="M431.5,92.2969 L572.5,92.2969 C577.5,92.2969 577.5,105.4453 577.5,105.4453 C577.5,105.4453 577.5,118.5938 572.5,118.5938 L431.5,118.5938 C426.5,118.5938 426.5,105.4453 426.5,105.4453 C426.5,105.4453 426.5,92.2969 431.5,92.2969 " fill="#E2E2F0" style="stroke:#181818;stroke-width:0.5;"/><path d="M572.5,92.2969 C567.5,92.2969 567.5,105.4453 567.5,105.4453 C567.5,118.5938 572.5,118.5938 572.5,118.5938 " fill="none" style="stroke:#181818;stroke-width:0.5;"/><text fill="#000000" font-family="sans-serif" font-size="14" lengthAdjust="spacing" textLength="131" x="431.5" y="110.292">Appointment Topic</text><path d="M431.5,492.3203 L572.5,492.3203 C577.5,492.3203 577.5,505.4688 577.5,505.4688 C577.5,505.4688 577.5,518.6172 572.5,518.6172 L431.5,518.6172 C426.5,518.6172 426.5,505.4688 426.5,505.4688 C426.5,505.4688 426.5,492.3203 431.5,492.3203 " fill="#E2E2F0" style="stroke:#181818;stroke-width:0.5;"/><path d="M572.5,492.3203 C567.5,492.3203 567.5,505.4688 567.5,505.4688 C567.5,518.6172 572.5,518.6172 572.5,518.6172 " fill="none" style="stroke:#181818;stroke-width:0.5;"/><text fill="#000000" font-family="sans-serif" font-size="14" lengthAdjust="spacing" textLength="131" x="431.5" y="510.3154">Appointment Topic</text><rect fill="#E2E2F0" height="30.2969" rx="2.5" ry="2.5" style="stroke:#181818;stroke-width:0.5;" width="80" x="587.5" y="87.2969"/><text fill="#000000" font-family="sans-serif" font-size="14" lengthAdjust="spacing" textLength="66" x="594.5" y="107.292">Database</text><rect fill="#E2E2F0" height="30.2969" rx="2.5" ry="2.5" style="stroke:#181818;stroke-width:0.5;" width="80" x="587.5" y="492.3203"/><text fill="#000000" font-family="sans-serif" font-size="14" lengthAdjust="spacing" textLength="66" x="594.5" y="512.3154">Database</text><rect fill="#FFFFFF" height="260.1953" style="stroke:#181818;stroke-width:1.0;" width="10" x="263" y="215.125"/><path d="M5,133.5938 L5,173.5938 L221,173.5938 L221,143.5938 L211,133.5938 L5,133.5938 " fill="#FEFFDD" style="stroke:#181818;stroke-width:0.5;"/><path d="M211,133.5938 L211,143.5938 L221,143.5938 L211,133.5938 " fill="#FEFFDD" style="stroke:#181818;stroke-width:0.5;"/><text fill="#000000" font-family="sans-serif" font-size="13" lengthAdjust="spacing" textLength="195" x="11" y="150.6606">In this example, the user must</text><text fill="#000000" font-family="sans-serif" font-size="13" lengthAdjust="spacing" textLength="28" x="11" y="165.7935">be a</text><text fill="#000000" font-family="sans-serif" font-size="13" font-weight="bold" lengthAdjust="spacing" textLength="53" x="43" y="165.7935">patient</text><text fill="#000000" font-family="sans-serif" font-size="13" lengthAdjust="spacing" textLength="4" x="96" y="165.7935">.</text><polygon fill="#181818" points="251,211.125,261,215.125,251,219.125,255,215.125" style="stroke:#181818;stroke-width:1.0;"/><line style="stroke:#181818;stroke-width:1.0;" x1="113" x2="257" y1="215.125" y2="215.125"/><text fill="#000000" font-family="sans-serif" font-size="13" lengthAdjust="spacing" textLength="131" x="120" y="194.9263">POST /appointments</text><text fill="#000000" font-family="sans-serif" font-size="13" lengthAdjust="spacing" textLength="78" x="120" y="210.0591">(Bearer JWT)</text><line style="stroke:#181818;stroke-width:1.0;" x1="273" x2="315" y1="259.3906" y2="259.3906"/><line style="stroke:#181818;stroke-width:1.0;" x1="315" x2="315" y1="259.3906" y2="272.3906"/><line style="stroke:#181818;stroke-width:1.0;" x1="274" x2="315" y1="272.3906" y2="272.3906"/><polygon fill="#181818" points="284,268.3906,274,272.3906,284,276.3906,280,272.3906" style="stroke:#181818;stroke-width:1.0;"/><text fill="#000000" font-family="sans-serif" font-size="13" lengthAdjust="spacing" textLength="163" x="280" y="239.1919">Validate the appointment</text><text fill="#000000" font-family="sans-serif" font-size="13" lengthAdjust="spacing" textLength="42" x="280" y="254.3247">details</text><line style="stroke:#181818;stroke-width:1.0;" x1="273" x2="315" y1="301.5234" y2="301.5234"/><line style="stroke:#181818;stroke-width:1.0;" x1="315" x2="315" y1="301.5234" y2="314.5234"/><line style="stroke:#181818;stroke-width:1.0;" x1="274" x2="315" y1="314.5234" y2="314.5234"/><polygon fill="#181818" points="284,310.5234,274,314.5234,284,318.5234,280,314.5234" style="stroke:#181818;stroke-width:1.0;"/><text fill="#000000" font-family="sans-serif" font-size="13" lengthAdjust="spacing" textLength="210" x="280" y="296.4575">Create a new appointment event</text><polygon fill="#181818" points="490,354.7891,500,358.7891,490,362.7891,494,358.7891" style="stroke:#181818;stroke-width:1.0;"/><line style="stroke:#181818;stroke-width:1.0;" x1="273" x2="496" y1="358.7891" y2="358.7891"/><text fill="#000000" font-family="sans-serif" font-size="13" lengthAdjust="spacing" textLength="122" x="280" y="338.5903">Send an event with</text><text fill="#000000" font-family="sans-serif" font-size="13" lengthAdjust="spacing" textLength="153" x="280" y="353.7231">the appointment details</text><polygon fill="#181818" points="284,383.9219,274,387.9219,284,391.9219,280,387.9219" style="stroke:#181818;stroke-width:1.0;"/><line style="stroke:#181818;stroke-width:1.0;stroke-dasharray:2.0,2.0;" x1="278" x2="501" y1="387.9219" y2="387.9219"/><text fill="#000000" font-family="sans-serif" font-size="13" lengthAdjust="spacing" textLength="147" x="290" y="382.856">Return the message ID</text><polygon fill="#181818" points="615.5,413.0547,625.5,417.0547,615.5,421.0547,619.5,417.0547" style="stroke:#181818;stroke-width:1.0;"/><line style="stroke:#181818;stroke-width:1.0;" x1="273" x2="621.5" y1="417.0547" y2="417.0547"/><text fill="#000000" font-family="sans-serif" font-size="13" lengthAdjust="spacing" textLength="146" x="280" y="411.9888">Store the event details</text><polygon fill="#181818" points="284,442.1875,274,446.1875,284,450.1875,280,446.1875" style="stroke:#181818;stroke-width:1.0;"/><line style="stroke:#181818;stroke-width:1.0;stroke-dasharray:2.0,2.0;" x1="278" x2="626.5" y1="446.1875" y2="446.1875"/><text fill="#000000" font-family="sans-serif" font-size="13" lengthAdjust="spacing" textLength="81" x="290" y="441.1216">Event stored</text><polygon fill="#181818" points="124,471.3203,114,475.3203,124,479.3203,120,475.3203" style="stroke:#181818;stroke-width:1.0;"/><line style="stroke:#181818;stroke-width:1.0;stroke-dasharray:2.0,2.0;" x1="118" x2="267" y1="475.3203" y2="475.3203"/><text fill="#000000" font-family="sans-serif" font-size="13" lengthAdjust="spacing" textLength="79" x="130" y="470.2544">201 Created</text><!--SRC=[bL9BJyCm3BxdLrWxGSLu7NT00WRIk83OWCiav3NM5gbDG-9s_7oSb8eEjKXSeZo-b-smuOBWrXEoiLj02zVELSPoIPRXlgZsIc7EbOV9Io0_0GnGoqOvz6nour1WapvdIRunEIKa_jo_X_PUVTHKqo5bLJcJ9mB7tQ7s71at65f1_NrGobPCK3NaspWB2xmp0UWJIrVGYPmelK1P1rOR0eGiSrAb66RPgIAh8MeebL3Jgw6mCtXwNAxWhFSKrlReXj0Bv-5jTPowOngKC4F53joDMhrYONGKYj5xYBNLn6YAy2-rDD9OjQLz7m7Ko3ecbVe_anbAT-Gl92pi3U_MzbSgw48b2ap7SZmJrzwccaeA0RS4Y_cOVJTUII1Vhkr4cw5pwn3ZXdS97o9V3_i8Cyvy1fVd5zzzqahJduFy0W00]--></g></svg>