<?xml version="1.0" encoding="us-ascii" standalone="no"?><svg xmlns="http://www.w3.org/2000/svg" xmlns:xlink="http://www.w3.org/1999/xlink" contentStyleType="text/css" height="558px" preserveAspectRatio="none" style="width:756px;height:558px;background:#FFFFFF;" version="1.1" viewBox="0 0 756 558" width="756px" zoomAndPan="magnify"><defs/><g><text fill="#000000" font-family="sans-serif" font-size="14" font-weight="bold" lengthAdjust="spacing" textLength="320" x="217" y="27.9951">Cria&#231;&#227;o de Relat&#243;rio M&#233;dico (Prontuario)</text><rect fill="#FFFFFF" height="245.0625" style="stroke:#181818;stroke-width:1.0;" width="10" x="483" y="215.125"/><line style="stroke:#181818;stroke-width:0.5;stroke-dasharray:5.0,5.0;" x1="115" x2="115" y1="118.5938" y2="478.1875"/><line style="stroke:#181818;stroke-width:0.5;stroke-dasharray:5.0,5.0;" x1="487.5" x2="487.5" y1="118.5938" y2="478.1875"/><line style="stroke:#181818;stroke-width:0.5;stroke-dasharray:5.0,5.0;" x1="710" x2="710" y1="118.5938" y2="478.1875"/><text fill="#000000" font-family="sans-serif" font-size="14" lengthAdjust="spacing" textLength="32" x="96" y="115.292">User</text><ellipse cx="115" cy="50.7969" fill="#E2E2F0" rx="8" ry="8" style="stroke:#181818;stroke-width:0.5;"/><path d="M115,58.7969 L115,85.7969 M102,66.7969 L128,66.7969 M115,85.7969 L102,100.7969 M115,85.7969 L128,100.7969 " fill="none" style="stroke:#181818;stroke-width:0.5;"/><text fill="#000000" font-family="sans-serif" font-size="14" lengthAdjust="spacing" textLength="32" x="96" y="490.1826">User</text><ellipse cx="115" cy="501.9844" fill="#E2E2F0" rx="8" ry="8" style="stroke:#181818;stroke-width:0.5;"/><path d="M115,509.9844 L115,536.9844 M102,517.9844 L128,517.9844 M115,536.9844 L102,551.9844 M115,536.9844 L128,551.9844 " fill="none" style="stroke:#181818;stroke-width:0.5;"/><rect fill="#E2E2F0" height="30.2969" rx="2.5" ry="2.5" style="stroke:#181818;stroke-width:0.5;" width="157" x="409.5" y="87.2969"/><text fill="#000000" font-family="sans-serif" font-size="14" lengthAdjust="spacing" textLength="143" x="416.5" y="107.292">Appointment Service</text><rect fill="#E2E2F0" height="30.2969" rx="2.5" ry="2.5" style="stroke:#181818;stroke-width:0.5;" width="157" x="409.5" y="477.1875"/><text fill="#000000" font-family="sans-serif" font-size="14" lengthAdjust="spacing" textLength="143" x="416.5" y="497.1826">Appointment Service</text><rect fill="#E2E2F0" height="30.2969" rx="2.5" ry="2.5" style="stroke:#181818;stroke-width:0.5;" width="80" x="670" y="87.2969"/><text fill="#000000" font-family="sans-serif" font-size="14" lengthAdjust="spacing" textLength="66" x="677" y="107.292">Database</text><rect fill="#E2E2F0" height="30.2969" rx="2.5" ry="2.5" style="stroke:#181818;stroke-width:0.5;" width="80" x="670" y="477.1875"/><text fill="#000000" font-family="sans-serif" font-size="14" lengthAdjust="spacing" textLength="66" x="677" y="497.1826">Database</text><rect fill="#FFFFFF" height="245.0625" style="stroke:#181818;stroke-width:1.0;" width="10" x="483" y="215.125"/><path d="M5,133.5938 L5,173.5938 L225,173.5938 L225,143.5938 L215,133.5938 L5,133.5938 " fill="#FEFFDD" style="stroke:#181818;stroke-width:0.5;"/><path d="M215,133.5938 L215,143.5938 L225,143.5938 L215,133.5938 " fill="#FEFFDD" style="stroke:#181818;stroke-width:0.5;"/><text fill="#000000" font-family="sans-serif" font-size="13" lengthAdjust="spacing" textLength="199" x="11" y="150.6606">Neste exemplo, o usu&#225;rio deve</text><text fill="#000000" font-family="sans-serif" font-size="13" lengthAdjust="spacing" textLength="45" x="11" y="165.7935">ser um</text><text fill="#000000" font-family="sans-serif" font-size="13" font-weight="bold" lengthAdjust="spacing" textLength="54" x="60" y="165.7935">m&#233;dico</text><text fill="#000000" font-family="sans-serif" font-size="13" lengthAdjust="spacing" textLength="4" x="114" y="165.7935">.</text><polygon fill="#181818" points="471,211.125,481,215.125,471,219.125,475,215.125" style="stroke:#181818;stroke-width:1.0;"/><line style="stroke:#181818;stroke-width:1.0;" x1="115" x2="477" y1="215.125" y2="215.125"/><text fill="#000000" font-family="sans-serif" font-size="13" lengthAdjust="spacing" textLength="349" x="122" y="194.9263">POST /appointments/{appointmentId}/medical-reports</text><text fill="#000000" font-family="sans-serif" font-size="13" lengthAdjust="spacing" textLength="78" x="122" y="210.0591">(Bearer JWT)</text><line style="stroke:#181818;stroke-width:1.0;" x1="493" x2="535" y1="259.3906" y2="259.3906"/><line style="stroke:#181818;stroke-width:1.0;" x1="535" x2="535" y1="259.3906" y2="272.3906"/><line style="stroke:#181818;stroke-width:1.0;" x1="494" x2="535" y1="272.3906" y2="272.3906"/><polygon fill="#181818" points="504,268.3906,494,272.3906,504,276.3906,500,272.3906" style="stroke:#181818;stroke-width:1.0;"/><text fill="#000000" font-family="sans-serif" font-size="13" lengthAdjust="spacing" textLength="164" x="500" y="239.1919">Validar o relat&#243;rio m&#233;dico</text><text fill="#000000" font-family="sans-serif" font-size="13" lengthAdjust="spacing" textLength="42" x="500" y="254.3247">details</text><polygon fill="#181818" points="698,297.5234,708,301.5234,698,305.5234,702,301.5234" style="stroke:#181818;stroke-width:1.0;"/><line style="stroke:#181818;stroke-width:1.0;" x1="493" x2="704" y1="301.5234" y2="301.5234"/><text fill="#000000" font-family="sans-serif" font-size="13" lengthAdjust="spacing" textLength="126" x="500" y="296.4575">Carregar a consulta</text><polygon fill="#181818" points="504,326.6563,494,330.6563,504,334.6563,500,330.6563" style="stroke:#181818;stroke-width:1.0;"/><line style="stroke:#181818;stroke-width:1.0;stroke-dasharray:2.0,2.0;" x1="498" x2="709" y1="330.6563" y2="330.6563"/><text fill="#000000" font-family="sans-serif" font-size="13" lengthAdjust="spacing" textLength="120" x="510" y="325.5903">Retorna a consulta</text><line style="stroke:#181818;stroke-width:1.0;" x1="493" x2="535" y1="359.7891" y2="359.7891"/><line style="stroke:#181818;stroke-width:1.0;" x1="535" x2="535" y1="359.7891" y2="372.7891"/><line style="stroke:#181818;stroke-width:1.0;" x1="494" x2="535" y1="372.7891" y2="372.7891"/><polygon fill="#181818" points="504,368.7891,494,372.7891,504,376.7891,500,372.7891" style="stroke:#181818;stroke-width:1.0;"/><text fill="#000000" font-family="sans-serif" font-size="13" lengthAdjust="spacing" textLength="198" x="500" y="354.7231">Criar um novo relat&#243;rio m&#233;dico</text><polygon fill="#181818" points="698,397.9219,708,401.9219,698,405.9219,702,401.9219" style="stroke:#181818;stroke-width:1.0;"/><line style="stroke:#181818;stroke-width:1.0;" x1="493" x2="704" y1="401.9219" y2="401.9219"/><text fill="#000000" font-family="sans-serif" font-size="13" lengthAdjust="spacing" textLength="191" x="500" y="396.856">Armazenar o relat&#243;rio m&#233;dico</text><polygon fill="#181818" points="504,427.0547,494,431.0547,504,435.0547,500,431.0547" style="stroke:#181818;stroke-width:1.0;"/><line style="stroke:#181818;stroke-width:1.0;stroke-dasharray:2.0,2.0;" x1="498" x2="709" y1="431.0547" y2="431.0547"/><text fill="#000000" font-family="sans-serif" font-size="13" lengthAdjust="spacing" textLength="192" x="510" y="425.9888">Relat&#243;rio m&#233;dico armazenado</text><polygon fill="#181818" points="126,456.1875,116,460.1875,126,464.1875,122,460.1875" style="stroke:#181818;stroke-width:1.0;"/><line style="stroke:#181818;stroke-width:1.0;stroke-dasharray:2.0,2.0;" x1="120" x2="487" y1="460.1875" y2="460.1875"/><text fill="#000000" font-family="sans-serif" font-size="13" lengthAdjust="spacing" textLength="69" x="132" y="455.1216">201 Criado</text><!--SRC=[bL9DJyCm3BtdLrWzZOenuDW3qXWNa81f6t2PX4nZeKXfKZbfXK3y6CG1SUOdz8-HjfisKCl7BNwsdz-puvNN11DMMBrLhnOamOmq-kg3bONpwbsgrC9WojRu0WEs8mIctZ94Luuu0dHGX8V8aRrALOx6GpJESwkCpoW4S-9IfTHKuWQ_TIt-jV44FTwXQwlbAX32M4zWI-9srWMv4DC3PRcsks03MbGljM199GbNrsKGnrahFuxt11a9DOiGDGCCZxgq932zd2zWj9LoewUjw5G-Zp8AdAY7JBbbxvPcS4p8WVFiPj4kHvKOv7LvxS1wfLoZLX8vkEFDGLQEbaQIHwLT7-DwTGbCa9dk0mz2Qeqhj4UnpiAmR_YCmeaDRZVzHtlzdveR65jswVzTzfWpV2JJu_zF3hut0QuuPS_yG5L_ZWGEzmyQ2w5Gqey7_GG0]--></g></svg>