<?xml version="1.0" encoding="us-ascii" standalone="no"?><svg xmlns="http://www.w3.org/2000/svg" xmlns:xlink="http://www.w3.org/1999/xlink" contentStyleType="text/css" height="574px" preserveAspectRatio="none" style="width:681px;height:574px;background:#FFFFFF;" version="1.1" viewBox="0 0 681 574" width="681px" zoomAndPan="magnify"><defs/><g><text fill="#000000" font-family="sans-serif" font-size="14" font-weight="bold" lengthAdjust="spacing" textLength="158" x="260.75" y="27.9951">Cria&#231;&#227;o de Consulta</text><rect fill="#FFFFFF" height="260.1953" style="stroke:#181818;stroke-width:1.0;" width="10" x="265" y="215.125"/><line style="stroke:#181818;stroke-width:0.5;stroke-dasharray:5.0,5.0;" x1="115" x2="115" y1="118.5938" y2="493.3203"/><line style="stroke:#181818;stroke-width:0.5;stroke-dasharray:5.0,5.0;" x1="269.5" x2="269.5" y1="118.5938" y2="493.3203"/><line style="stroke:#181818;stroke-width:0.5;stroke-dasharray:5.0,5.0;" x1="509.5" x2="509.5" y1="118.5938" y2="493.3203"/><line style="stroke:#181818;stroke-width:0.5;stroke-dasharray:5.0,5.0;" x1="635.5" x2="635.5" y1="118.5938" y2="493.3203"/><text fill="#000000" font-family="sans-serif" font-size="14" lengthAdjust="spacing" textLength="32" x="96" y="115.292">User</text><ellipse cx="115" cy="50.7969" fill="#E2E2F0" rx="8" ry="8" style="stroke:#181818;stroke-width:0.5;"/><path d="M115,58.7969 L115,85.7969 M102,66.7969 L128,66.7969 M115,85.7969 L102,100.7969 M115,85.7969 L128,100.7969 " fill="none" style="stroke:#181818;stroke-width:0.5;"/><text fill="#000000" font-family="sans-serif" font-size="14" lengthAdjust="spacing" textLength="32" x="96" y="505.3154">User</text><ellipse cx="115" cy="517.1172" fill="#E2E2F0" rx="8" ry="8" style="stroke:#181818;stroke-width:0.5;"/><path d="M115,525.1172 L115,552.1172 M102,533.1172 L128,533.1172 M115,552.1172 L102,567.1172 M115,552.1172 L128,567.1172 " fill="none" style="stroke:#181818;stroke-width:0.5;"/><rect fill="#E2E2F0" height="30.2969" rx="2.5" ry="2.5" style="stroke:#181818;stroke-width:0.5;" width="157" x="191.5" y="87.2969"/><text fill="#000000" font-family="sans-serif" font-size="14" lengthAdjust="spacing" textLength="143" x="198.5" y="107.292">Appointment Service</text><rect fill="#E2E2F0" height="30.2969" rx="2.5" ry="2.5" style="stroke:#181818;stroke-width:0.5;" width="157" x="191.5" y="492.3203"/><text fill="#000000" font-family="sans-serif" font-size="14" lengthAdjust="spacing" textLength="143" x="198.5" y="512.3154">Appointment Service</text><path d="M439.5,92.2969 L580.5,92.2969 C585.5,92.2969 585.5,105.4453 585.5,105.4453 C585.5,105.4453 585.5,118.5938 580.5,118.5938 L439.5,118.5938 C434.5,118.5938 434.5,105.4453 434.5,105.4453 C434.5,105.4453 434.5,92.2969 439.5,92.2969 " fill="#E2E2F0" style="stroke:#181818;stroke-width:0.5;"/><path d="M580.5,92.2969 C575.5,92.2969 575.5,105.4453 575.5,105.4453 C575.5,118.5938 580.5,118.5938 580.5,118.5938 " fill="none" style="stroke:#181818;stroke-width:0.5;"/><text fill="#000000" font-family="sans-serif" font-size="14" lengthAdjust="spacing" textLength="131" x="439.5" y="110.292">Appointment Topic</text><path d="M439.5,492.3203 L580.5,492.3203 C585.5,492.3203 585.5,505.4688 585.5,505.4688 C585.5,505.4688 585.5,518.6172 580.5,518.6172 L439.5,518.6172 C434.5,518.6172 434.5,505.4688 434.5,505.4688 C434.5,505.4688 434.5,492.3203 439.5,492.3203 " fill="#E2E2F0" style="stroke:#181818;stroke-width:0.5;"/><path d="M580.5,492.3203 C575.5,492.3203 575.5,505.4688 575.5,505.4688 C575.5,518.6172 580.5,518.6172 580.5,518.6172 " fill="none" style="stroke:#181818;stroke-width:0.5;"/><text fill="#000000" font-family="sans-serif" font-size="14" lengthAdjust="spacing" textLength="131" x="439.5" y="510.3154">Appointment Topic</text><rect fill="#E2E2F0" height="30.2969" rx="2.5" ry="2.5" style="stroke:#181818;stroke-width:0.5;" width="80" x="595.5" y="87.2969"/><text fill="#000000" font-family="sans-serif" font-size="14" lengthAdjust="spacing" textLength="66" x="602.5" y="107.292">Database</text><rect fill="#E2E2F0" height="30.2969" rx="2.5" ry="2.5" style="stroke:#181818;stroke-width:0.5;" width="80" x="595.5" y="492.3203"/><text fill="#000000" font-family="sans-serif" font-size="14" lengthAdjust="spacing" textLength="66" x="602.5" y="512.3154">Database</text><rect fill="#FFFFFF" height="260.1953" style="stroke:#181818;stroke-width:1.0;" width="10" x="265" y="215.125"/><path d="M5,133.5938 L5,173.5938 L225,173.5938 L225,143.5938 L215,133.5938 L5,133.5938 " fill="#FEFFDD" style="stroke:#181818;stroke-width:0.5;"/><path d="M215,133.5938 L215,143.5938 L225,143.5938 L215,133.5938 " fill="#FEFFDD" style="stroke:#181818;stroke-width:0.5;"/><text fill="#000000" font-family="sans-serif" font-size="13" lengthAdjust="spacing" textLength="199" x="11" y="150.6606">Neste exemplo, o usu&#225;rio deve</text><text fill="#000000" font-family="sans-serif" font-size="13" lengthAdjust="spacing" textLength="45" x="11" y="165.7935">ser um</text><text fill="#000000" font-family="sans-serif" font-size="13" font-weight="bold" lengthAdjust="spacing" textLength="64" x="60" y="165.7935">paciente</text><text fill="#000000" font-family="sans-serif" font-size="13" lengthAdjust="spacing" textLength="4" x="124" y="165.7935">.</text><polygon fill="#181818" points="253,211.125,263,215.125,253,219.125,257,215.125" style="stroke:#181818;stroke-width:1.0;"/><line style="stroke:#181818;stroke-width:1.0;" x1="115" x2="259" y1="215.125" y2="215.125"/><text fill="#000000" font-family="sans-serif" font-size="13" lengthAdjust="spacing" textLength="131" x="122" y="194.9263">POST /appointments</text><text fill="#000000" font-family="sans-serif" font-size="13" lengthAdjust="spacing" textLength="78" x="122" y="210.0591">(Bearer JWT)</text><line style="stroke:#181818;stroke-width:1.0;" x1="275" x2="317" y1="259.3906" y2="259.3906"/><line style="stroke:#181818;stroke-width:1.0;" x1="317" x2="317" y1="259.3906" y2="272.3906"/><line style="stroke:#181818;stroke-width:1.0;" x1="276" x2="317" y1="272.3906" y2="272.3906"/><polygon fill="#181818" points="286,268.3906,276,272.3906,286,276.3906,282,272.3906" style="stroke:#181818;stroke-width:1.0;"/><text fill="#000000" font-family="sans-serif" font-size="13" lengthAdjust="spacing" textLength="142" x="282" y="239.1919">Validar os detalhes da</text><text fill="#000000" font-family="sans-serif" font-size="13" lengthAdjust="spacing" textLength="54" x="282" y="254.3247">consulta</text><line style="stroke:#181818;stroke-width:1.0;" x1="275" x2="317" y1="301.5234" y2="301.5234"/><line style="stroke:#181818;stroke-width:1.0;" x1="317" x2="317" y1="301.5234" y2="314.5234"/><line style="stroke:#181818;stroke-width:1.0;" x1="276" x2="317" y1="314.5234" y2="314.5234"/><polygon fill="#181818" points="286,310.5234,276,314.5234,286,318.5234,282,314.5234" style="stroke:#181818;stroke-width:1.0;"/><text fill="#000000" font-family="sans-serif" font-size="13" lengthAdjust="spacing" textLength="216" x="282" y="296.4575">Criar um novo evento da consulta</text><polygon fill="#181818" points="498,354.7891,508,358.7891,498,362.7891,502,358.7891" style="stroke:#181818;stroke-width:1.0;"/><line style="stroke:#181818;stroke-width:1.0;" x1="275" x2="504" y1="358.7891" y2="358.7891"/><text fill="#000000" font-family="sans-serif" font-size="13" lengthAdjust="spacing" textLength="144" x="282" y="338.5903">Enviar um evento com</text><text fill="#000000" font-family="sans-serif" font-size="13" lengthAdjust="spacing" textLength="152" x="282" y="353.7231">os detalhes da consulta</text><polygon fill="#181818" points="286,383.9219,276,387.9219,286,391.9219,282,387.9219" style="stroke:#181818;stroke-width:1.0;"/><line style="stroke:#181818;stroke-width:1.0;stroke-dasharray:2.0,2.0;" x1="280" x2="509" y1="387.9219" y2="387.9219"/><text fill="#000000" font-family="sans-serif" font-size="13" lengthAdjust="spacing" textLength="181" x="292" y="382.856">Retornar o ID da mensagem</text><polygon fill="#181818" points="623.5,413.0547,633.5,417.0547,623.5,421.0547,627.5,417.0547" style="stroke:#181818;stroke-width:1.0;"/><line style="stroke:#181818;stroke-width:1.0;" x1="275" x2="629.5" y1="417.0547" y2="417.0547"/><text fill="#000000" font-family="sans-serif" font-size="13" lengthAdjust="spacing" textLength="217" x="282" y="411.9888">Armazenar os detalhes do evento</text><polygon fill="#181818" points="286,442.1875,276,446.1875,286,450.1875,282,446.1875" style="stroke:#181818;stroke-width:1.0;"/><line style="stroke:#181818;stroke-width:1.0;stroke-dasharray:2.0,2.0;" x1="280" x2="634.5" y1="446.1875" y2="446.1875"/><text fill="#000000" font-family="sans-serif" font-size="13" lengthAdjust="spacing" textLength="129" x="292" y="441.1216">Evento armazenado</text><polygon fill="#181818" points="126,471.3203,116,475.3203,126,479.3203,122,475.3203" style="stroke:#181818;stroke-width:1.0;"/><line style="stroke:#181818;stroke-width:1.0;stroke-dasharray:2.0,2.0;" x1="120" x2="269" y1="475.3203" y2="475.3203"/><text fill="#000000" font-family="sans-serif" font-size="13" lengthAdjust="spacing" textLength="69" x="132" y="470.2544">201 Criado</text><!--SRC=[bLBBJiCm4BpxArOzGKHv7ND0AhG7E02Y1IwHq9Aim59Y6zk947-3EF0X_J7MJg9Ib82uUHypExDhBtr9S6ObhZ_N7neA3hHoTUbH2CozjZ2vTMGdW0vgVWY3rijS6bGU9ZDZj5I-8WwMP1kPK-p4JVx1jNdnKbDDsv2LDZAF01zUsznpzFY8hYKika08fJs1RiYsSYx9SKolL9bIxu7cRBr-jp9OQKYuq5T1aXZC9O-a9DaNf0e8D4842fYU3EbDuVfgkOA3RoMNgPrJGikOY_lLRboGR93d3_aTo8sEkiDI5cX1irFoM3vJi9oflB_5VyZ2DQDhfHiDl0NbUHi8Vv756wImK4s7xw2vhZArhMp35K4m7TDoG_o5L706v_C0vBB39wh6HFI7Jc5cAtmZzNChlIFHTuuFNxJwiICgzF1GXeT_aCBnuL5S7ZSMzEjjlm00]--></g></svg>