<?xml version="1.0" encoding="us-ascii" standalone="no"?><svg xmlns="http://www.w3.org/2000/svg" xmlns:xlink="http://www.w3.org/1999/xlink" contentStyleType="text/css" height="558px" preserveAspectRatio="none" style="width:737px;height:558px;background:#FFFFFF;" version="1.1" viewBox="0 0 737 558" width="737px" zoomAndPan="magnify"><defs/><g><text fill="#000000" font-family="sans-serif" font-size="14" font-weight="bold" lengthAdjust="spacing" textLength="239" x="248" y="27.9951">Creating an Appointment Flow</text><rect fill="#FFFFFF" height="245.0625" style="stroke:#181818;stroke-width:1.0;" width="10" x="481" y="215.125"/><line style="stroke:#181818;stroke-width:0.5;stroke-dasharray:5.0,5.0;" x1="113" x2="113" y1="118.5938" y2="478.1875"/><line style="stroke:#181818;stroke-width:0.5;stroke-dasharray:5.0,5.0;" x1="485.5" x2="485.5" y1="118.5938" y2="478.1875"/><line style="stroke:#181818;stroke-width:0.5;stroke-dasharray:5.0,5.0;" x1="691" x2="691" y1="118.5938" y2="478.1875"/><text fill="#000000" font-family="sans-serif" font-size="14" lengthAdjust="spacing" textLength="32" x="94" y="115.292">User</text><ellipse cx="113" cy="50.7969" fill="#E2E2F0" rx="8" ry="8" style="stroke:#181818;stroke-width:0.5;"/><path d="M113,58.7969 L113,85.7969 M100,66.7969 L126,66.7969 M113,85.7969 L100,100.7969 M113,85.7969 L126,100.7969 " fill="none" style="stroke:#181818;stroke-width:0.5;"/><text fill="#000000" font-family="sans-serif" font-size="14" lengthAdjust="spacing" textLength="32" x="94" y="490.1826">User</text><ellipse cx="113" cy="501.9844" fill="#E2E2F0" rx="8" ry="8" style="stroke:#181818;stroke-width:0.5;"/><path d="M113,509.9844 L113,536.9844 M100,517.9844 L126,517.9844 M113,536.9844 L100,551.9844 M113,536.9844 L126,551.9844 " fill="none" style="stroke:#181818;stroke-width:0.5;"/><rect fill="#E2E2F0" height="30.2969" rx="2.5" ry="2.5" style="stroke:#181818;stroke-width:0.5;" width="157" x="407.5" y="87.2969"/><text fill="#000000" font-family="sans-serif" font-size="14" lengthAdjust="spacing" textLength="143" x="414.5" y="107.292">Appointment Service</text><rect fill="#E2E2F0" height="30.2969" rx="2.5" ry="2.5" style="stroke:#181818;stroke-width:0.5;" width="157" x="407.5" y="477.1875"/><text fill="#000000" font-family="sans-serif" font-size="14" lengthAdjust="spacing" textLength="143" x="414.5" y="497.1826">Appointment Service</text><rect fill="#E2E2F0" height="30.2969" rx="2.5" ry="2.5" style="stroke:#181818;stroke-width:0.5;" width="80" x="651" y="87.2969"/><text fill="#000000" font-family="sans-serif" font-size="14" lengthAdjust="spacing" textLength="66" x="658" y="107.292">Database</text><rect fill="#E2E2F0" height="30.2969" rx="2.5" ry="2.5" style="stroke:#181818;stroke-width:0.5;" width="80" x="651" y="477.1875"/><text fill="#000000" font-family="sans-serif" font-size="14" lengthAdjust="spacing" textLength="66" x="658" y="497.1826">Database</text><rect fill="#FFFFFF" height="245.0625" style="stroke:#181818;stroke-width:1.0;" width="10" x="481" y="215.125"/><path d="M5,133.5938 L5,173.5938 L221,173.5938 L221,143.5938 L211,133.5938 L5,133.5938 " fill="#FEFFDD" style="stroke:#181818;stroke-width:0.5;"/><path d="M211,133.5938 L211,143.5938 L221,143.5938 L211,133.5938 " fill="#FEFFDD" style="stroke:#181818;stroke-width:0.5;"/><text fill="#000000" font-family="sans-serif" font-size="13" lengthAdjust="spacing" textLength="195" x="11" y="150.6606">In this example, the user must</text><text fill="#000000" font-family="sans-serif" font-size="13" lengthAdjust="spacing" textLength="28" x="11" y="165.7935">be a</text><text fill="#000000" font-family="sans-serif" font-size="13" font-weight="bold" lengthAdjust="spacing" textLength="48" x="43" y="165.7935">doctor</text><text fill="#000000" font-family="sans-serif" font-size="13" lengthAdjust="spacing" textLength="4" x="91" y="165.7935">.</text><polygon fill="#181818" points="469,211.125,479,215.125,469,219.125,473,215.125" style="stroke:#181818;stroke-width:1.0;"/><line style="stroke:#181818;stroke-width:1.0;" x1="113" x2="475" y1="215.125" y2="215.125"/><text fill="#000000" font-family="sans-serif" font-size="13" lengthAdjust="spacing" textLength="349" x="120" y="194.9263">POST /appointments/{appointmentId}/medical-reports</text><text fill="#000000" font-family="sans-serif" font-size="13" lengthAdjust="spacing" textLength="78" x="120" y="210.0591">(Bearer JWT)</text><line style="stroke:#181818;stroke-width:1.0;" x1="491" x2="533" y1="259.3906" y2="259.3906"/><line style="stroke:#181818;stroke-width:1.0;" x1="533" x2="533" y1="259.3906" y2="272.3906"/><line style="stroke:#181818;stroke-width:1.0;" x1="492" x2="533" y1="272.3906" y2="272.3906"/><polygon fill="#181818" points="502,268.3906,492,272.3906,502,276.3906,498,272.3906" style="stroke:#181818;stroke-width:1.0;"/><text fill="#000000" font-family="sans-serif" font-size="13" lengthAdjust="spacing" textLength="174" x="498" y="239.1919">Validate the medical report</text><text fill="#000000" font-family="sans-serif" font-size="13" lengthAdjust="spacing" textLength="42" x="498" y="254.3247">details</text><polygon fill="#181818" points="679,297.5234,689,301.5234,679,305.5234,683,301.5234" style="stroke:#181818;stroke-width:1.0;"/><line style="stroke:#181818;stroke-width:1.0;" x1="491" x2="685" y1="301.5234" y2="301.5234"/><text fill="#000000" font-family="sans-serif" font-size="13" lengthAdjust="spacing" textLength="142" x="498" y="296.4575">Load the appointment</text><polygon fill="#181818" points="502,326.6563,492,330.6563,502,334.6563,498,330.6563" style="stroke:#181818;stroke-width:1.0;"/><line style="stroke:#181818;stroke-width:1.0;stroke-dasharray:2.0,2.0;" x1="496" x2="690" y1="330.6563" y2="330.6563"/><text fill="#000000" font-family="sans-serif" font-size="13" lengthAdjust="spacing" textLength="160" x="508" y="325.5903">Returns the appointment</text><line style="stroke:#181818;stroke-width:1.0;" x1="491" x2="533" y1="359.7891" y2="359.7891"/><line style="stroke:#181818;stroke-width:1.0;" x1="533" x2="533" y1="359.7891" y2="372.7891"/><line style="stroke:#181818;stroke-width:1.0;" x1="492" x2="533" y1="372.7891" y2="372.7891"/><polygon fill="#181818" points="502,368.7891,492,372.7891,502,376.7891,498,372.7891" style="stroke:#181818;stroke-width:1.0;"/><text fill="#000000" font-family="sans-serif" font-size="13" lengthAdjust="spacing" textLength="181" x="498" y="354.7231">Create a new medical report</text><polygon fill="#181818" points="679,397.9219,689,401.9219,679,405.9219,683,401.9219" style="stroke:#181818;stroke-width:1.0;"/><line style="stroke:#181818;stroke-width:1.0;" x1="491" x2="685" y1="401.9219" y2="401.9219"/><text fill="#000000" font-family="sans-serif" font-size="13" lengthAdjust="spacing" textLength="157" x="498" y="396.856">Store the medical report</text><polygon fill="#181818" points="502,427.0547,492,431.0547,502,435.0547,498,431.0547" style="stroke:#181818;stroke-width:1.0;"/><line style="stroke:#181818;stroke-width:1.0;stroke-dasharray:2.0,2.0;" x1="496" x2="690" y1="431.0547" y2="431.0547"/><text fill="#000000" font-family="sans-serif" font-size="13" lengthAdjust="spacing" textLength="136" x="508" y="425.9888">Medical report stored</text><polygon fill="#181818" points="124,456.1875,114,460.1875,124,464.1875,120,460.1875" style="stroke:#181818;stroke-width:1.0;"/><line style="stroke:#181818;stroke-width:1.0;stroke-dasharray:2.0,2.0;" x1="118" x2="485" y1="460.1875" y2="460.1875"/><text fill="#000000" font-family="sans-serif" font-size="13" lengthAdjust="spacing" textLength="79" x="130" y="455.1216">201 Created</text><!--SRC=[bL9DIyGm4BtdLmnxqcAjUkn1y0DXHL7igfS5cMq63RH9IQPTGVpl9cqNkzhwSSlCl7dlpKnOSK5mPWbPwMT03ITLPPJcaZJ3HM7MGc3EniBitf6T0Jge_KDKQ5dbga8FcmrxChADogb5ucV-oNNvxSPpP5oXwz2o3uJGXWbCGxRJcclW5-M0Nh6i2jhp4RKLA6l7OaM044NI19zHj2z8ImWKGhIW-7ZCI0gtDza2aa799M-3Q2xVavAaoh68BLN6iblgdLD2wpal7nUxxMPKWzxhsA0ZkKah3rWe6OZ2PBqeTA9BBObH5MwASBEs5AuCofPXW1IRCiHJudV4jTNkM-T_1cX_KBY3flMN0NxtdVcxZOt-1-_NMmtW0fCSL_GKuJkaS7HmsFkLGjAFD_m0]--></g></svg>