<?xml version="1.0" encoding="us-ascii" standalone="no"?><svg xmlns="http://www.w3.org/2000/svg" xmlns:xlink="http://www.w3.org/1999/xlink" contentStyleType="text/css" height="632px" preserveAspectRatio="none" style="width:821px;height:632px;background:#FFFFFF;" version="1.1" viewBox="0 0 821 632" width="821px" zoomAndPan="magnify"><defs/><g><text fill="#000000" font-family="sans-serif" font-size="14" font-weight="bold" lengthAdjust="spacing" textLength="196" x="311.5" y="27.9951">Sending Feedbacks Flow</text><rect fill="#FFFFFF" height="318.4609" style="stroke:#181818;stroke-width:1.0;" width="10" x="445" y="215.125"/><line style="stroke:#181818;stroke-width:0.5;stroke-dasharray:5.0,5.0;" x1="113" x2="113" y1="118.5938" y2="551.5859"/><line style="stroke:#181818;stroke-width:0.5;stroke-dasharray:5.0,5.0;" x1="449.5" x2="449.5" y1="118.5938" y2="551.5859"/><line style="stroke:#181818;stroke-width:0.5;stroke-dasharray:5.0,5.0;" x1="660" x2="660" y1="118.5938" y2="551.5859"/><line style="stroke:#181818;stroke-width:0.5;stroke-dasharray:5.0,5.0;" x1="775" x2="775" y1="118.5938" y2="551.5859"/><text fill="#000000" font-family="sans-serif" font-size="14" lengthAdjust="spacing" textLength="32" x="94" y="115.292">User</text><ellipse cx="113" cy="50.7969" fill="#E2E2F0" rx="8" ry="8" style="stroke:#181818;stroke-width:0.5;"/><path d="M113,58.7969 L113,85.7969 M100,66.7969 L126,66.7969 M113,85.7969 L100,100.7969 M113,85.7969 L126,100.7969 " fill="none" style="stroke:#181818;stroke-width:0.5;"/><text fill="#000000" font-family="sans-serif" font-size="14" lengthAdjust="spacing" textLength="32" x="94" y="563.5811">User</text><ellipse cx="113" cy="575.3828" fill="#E2E2F0" rx="8" ry="8" style="stroke:#181818;stroke-width:0.5;"/><path d="M113,583.3828 L113,610.3828 M100,591.3828 L126,591.3828 M113,610.3828 L100,625.3828 M113,610.3828 L126,625.3828 " fill="none" style="stroke:#181818;stroke-width:0.5;"/><rect fill="#E2E2F0" height="30.2969" rx="2.5" ry="2.5" style="stroke:#181818;stroke-width:0.5;" width="157" x="371.5" y="87.2969"/><text fill="#000000" font-family="sans-serif" font-size="14" lengthAdjust="spacing" textLength="143" x="378.5" y="107.292">Appointment Service</text><rect fill="#E2E2F0" height="30.2969" rx="2.5" ry="2.5" style="stroke:#181818;stroke-width:0.5;" width="157" x="371.5" y="550.5859"/><text fill="#000000" font-family="sans-serif" font-size="14" lengthAdjust="spacing" textLength="143" x="378.5" y="570.5811">Appointment Service</text><path d="M600,92.2969 L720,92.2969 C725,92.2969 725,105.4453 725,105.4453 C725,105.4453 725,118.5938 720,118.5938 L600,118.5938 C595,118.5938 595,105.4453 595,105.4453 C595,105.4453 595,92.2969 600,92.2969 " fill="#E2E2F0" style="stroke:#181818;stroke-width:0.5;"/><path d="M720,92.2969 C715,92.2969 715,105.4453 715,105.4453 C715,118.5938 720,118.5938 720,118.5938 " fill="none" style="stroke:#181818;stroke-width:0.5;"/><text fill="#000000" font-family="sans-serif" font-size="14" lengthAdjust="spacing" textLength="110" x="600" y="110.292">Feedback Topic</text><path d="M600,550.5859 L720,550.5859 C725,550.5859 725,563.7344 725,563.7344 C725,563.7344 725,576.8828 720,576.8828 L600,576.8828 C595,576.8828 595,563.7344 595,563.7344 C595,563.7344 595,550.5859 600,550.5859 " fill="#E2E2F0" style="stroke:#181818;stroke-width:0.5;"/><path d="M720,550.5859 C715,550.5859 715,563.7344 715,563.7344 C715,576.8828 720,576.8828 720,576.8828 " fill="none" style="stroke:#181818;stroke-width:0.5;"/><text fill="#000000" font-family="sans-serif" font-size="14" lengthAdjust="spacing" textLength="110" x="600" y="568.5811">Feedback Topic</text><rect fill="#E2E2F0" height="30.2969" rx="2.5" ry="2.5" style="stroke:#181818;stroke-width:0.5;" width="80" x="735" y="87.2969"/><text fill="#000000" font-family="sans-serif" font-size="14" lengthAdjust="spacing" textLength="66" x="742" y="107.292">Database</text><rect fill="#E2E2F0" height="30.2969" rx="2.5" ry="2.5" style="stroke:#181818;stroke-width:0.5;" width="80" x="735" y="550.5859"/><text fill="#000000" font-family="sans-serif" font-size="14" lengthAdjust="spacing" textLength="66" x="742" y="570.5811">Database</text><rect fill="#FFFFFF" height="318.4609" style="stroke:#181818;stroke-width:1.0;" width="10" x="445" y="215.125"/><path d="M5,133.5938 L5,173.5938 L221,173.5938 L221,143.5938 L211,133.5938 L5,133.5938 " fill="#FEFFDD" style="stroke:#181818;stroke-width:0.5;"/><path d="M211,133.5938 L211,143.5938 L221,143.5938 L211,133.5938 " fill="#FEFFDD" style="stroke:#181818;stroke-width:0.5;"/><text fill="#000000" font-family="sans-serif" font-size="13" lengthAdjust="spacing" textLength="195" x="11" y="150.6606">In this example, the user must</text><text fill="#000000" font-family="sans-serif" font-size="13" lengthAdjust="spacing" textLength="28" x="11" y="165.7935">be a</text><text fill="#000000" font-family="sans-serif" font-size="13" font-weight="bold" lengthAdjust="spacing" textLength="53" x="43" y="165.7935">patient</text><text fill="#000000" font-family="sans-serif" font-size="13" lengthAdjust="spacing" textLength="4" x="96" y="165.7935">.</text><polygon fill="#181818" points="433,211.125,443,215.125,433,219.125,437,215.125" style="stroke:#181818;stroke-width:1.0;"/><line style="stroke:#181818;stroke-width:1.0;" x1="113" x2="439" y1="215.125" y2="215.125"/><text fill="#000000" font-family="sans-serif" font-size="13" lengthAdjust="spacing" textLength="313" x="120" y="194.9263">POST /appointments/{appointmentId}/feedbacks</text><text fill="#000000" font-family="sans-serif" font-size="13" lengthAdjust="spacing" textLength="78" x="120" y="210.0591">(Bearer JWT)</text><line style="stroke:#181818;stroke-width:1.0;" x1="455" x2="497" y1="259.3906" y2="259.3906"/><line style="stroke:#181818;stroke-width:1.0;" x1="497" x2="497" y1="259.3906" y2="272.3906"/><line style="stroke:#181818;stroke-width:1.0;" x1="456" x2="497" y1="272.3906" y2="272.3906"/><polygon fill="#181818" points="466,268.3906,456,272.3906,466,276.3906,462,272.3906" style="stroke:#181818;stroke-width:1.0;"/><text fill="#000000" font-family="sans-serif" font-size="13" lengthAdjust="spacing" textLength="165" x="462" y="239.1919">Must be informed a rating</text><text fill="#000000" font-family="sans-serif" font-size="13" lengthAdjust="spacing" textLength="102" x="462" y="254.3247">and a comment</text><polygon fill="#181818" points="763,297.5234,773,301.5234,763,305.5234,767,301.5234" style="stroke:#181818;stroke-width:1.0;"/><line style="stroke:#181818;stroke-width:1.0;" x1="455" x2="769" y1="301.5234" y2="301.5234"/><text fill="#000000" font-family="sans-serif" font-size="13" lengthAdjust="spacing" textLength="142" x="462" y="296.4575">Load the appointment</text><polygon fill="#181818" points="466,326.6563,456,330.6563,466,334.6563,462,330.6563" style="stroke:#181818;stroke-width:1.0;"/><line style="stroke:#181818;stroke-width:1.0;stroke-dasharray:2.0,2.0;" x1="460" x2="774" y1="330.6563" y2="330.6563"/><text fill="#000000" font-family="sans-serif" font-size="13" lengthAdjust="spacing" textLength="160" x="472" y="325.5903">Returns the appointment</text><line style="stroke:#181818;stroke-width:1.0;" x1="455" x2="497" y1="359.7891" y2="359.7891"/><line style="stroke:#181818;stroke-width:1.0;" x1="497" x2="497" y1="359.7891" y2="372.7891"/><line style="stroke:#181818;stroke-width:1.0;" x1="456" x2="497" y1="372.7891" y2="372.7891"/><polygon fill="#181818" points="466,368.7891,456,372.7891,466,376.7891,462,372.7891" style="stroke:#181818;stroke-width:1.0;"/><text fill="#000000" font-family="sans-serif" font-size="13" lengthAdjust="spacing" textLength="186" x="462" y="354.7231">Create a new feedback event</text><polygon fill="#181818" points="648,413.0547,658,417.0547,648,421.0547,652,417.0547" style="stroke:#181818;stroke-width:1.0;"/><line style="stroke:#181818;stroke-width:1.0;" x1="455" x2="654" y1="417.0547" y2="417.0547"/><text fill="#000000" font-family="sans-serif" font-size="13" lengthAdjust="spacing" textLength="122" x="462" y="396.856">Send an event with</text><text fill="#000000" font-family="sans-serif" font-size="13" lengthAdjust="spacing" textLength="129" x="462" y="411.9888">the feedback details</text><polygon fill="#181818" points="466,442.1875,456,446.1875,466,450.1875,462,446.1875" style="stroke:#181818;stroke-width:1.0;"/><line style="stroke:#181818;stroke-width:1.0;stroke-dasharray:2.0,2.0;" x1="460" x2="659" y1="446.1875" y2="446.1875"/><text fill="#000000" font-family="sans-serif" font-size="13" lengthAdjust="spacing" textLength="147" x="472" y="441.1216">Return the message ID</text><polygon fill="#181818" points="763,471.3203,773,475.3203,763,479.3203,767,475.3203" style="stroke:#181818;stroke-width:1.0;"/><line style="stroke:#181818;stroke-width:1.0;" x1="455" x2="769" y1="475.3203" y2="475.3203"/><text fill="#000000" font-family="sans-serif" font-size="13" lengthAdjust="spacing" textLength="146" x="462" y="470.2544">Store the event details</text><polygon fill="#181818" points="466,500.4531,456,504.4531,466,508.4531,462,504.4531" style="stroke:#181818;stroke-width:1.0;"/><line style="stroke:#181818;stroke-width:1.0;stroke-dasharray:2.0,2.0;" x1="460" x2="774" y1="504.4531" y2="504.4531"/><text fill="#000000" font-family="sans-serif" font-size="13" lengthAdjust="spacing" textLength="81" x="472" y="499.3872">Event stored</text><polygon fill="#181818" points="124,529.5859,114,533.5859,124,537.5859,120,533.5859" style="stroke:#181818;stroke-width:1.0;"/><line style="stroke:#181818;stroke-width:1.0;stroke-dasharray:2.0,2.0;" x1="118" x2="449" y1="533.5859" y2="533.5859"/><text fill="#000000" font-family="sans-serif" font-size="13" lengthAdjust="spacing" textLength="79" x="130" y="528.52">201 Created</text><!--SRC=[bLB1JiCm3BtdAwoTe68CEFQ018n9Go0G7U8o2NcDjqMqJadI3WdnxwJf2aDqcxZ5yVFpUqzsocK42R5Kl80HaPnX-cfXbEcL49WwRQ3tPCdq02sK_Y4AD4wbga1sqBie2gtOvUIBX4obKWf8_Fb_iSs_U2kf9EYrIs2Y2vK6jAjVluc7w726jc6Jwq88rev0LsGQBMC6jrGMw1tp8gCZNr7eG5vQ9sO4255Ke5DUI1GT2syKQWuX0gf_tgKqXeVxP0A3ZPOTV6nKO_avcBTPJVdWaj1ujfldoM48JLNePNPbqF6tLSITjm3UWkAvDZb9xyLu9xoOCd9TfJgl9xQHjgd5SAjHXcWsaA9jGt-RW4TofM7xP_8_9guCXIo0QGLjPa3L3fvm3N4uIa1kiB1IRZdbMiatYII7AhCYuFUv22PoiXON1EFX_imIV_eKfXe1xRRziLq7lAtdPVSUFrcVNmnd9wVhXAIGjFDon1S0]--></g></svg>