<?xml version="1.0" encoding="us-ascii" standalone="no"?><svg xmlns="http://www.w3.org/2000/svg" xmlns:xlink="http://www.w3.org/1999/xlink" contentStyleType="text/css" height="632px" preserveAspectRatio="none" style="width:857px;height:632px;background:#FFFFFF;" version="1.1" viewBox="0 0 857 632" width="857px" zoomAndPan="magnify"><defs/><g><text fill="#000000" font-family="sans-serif" font-size="14" font-weight="bold" lengthAdjust="spacing" textLength="148" x="353.5" y="27.9951">Envio de Feedback</text><rect fill="#FFFFFF" height="318.4609" style="stroke:#181818;stroke-width:1.0;" width="10" x="447" y="215.125"/><line style="stroke:#181818;stroke-width:0.5;stroke-dasharray:5.0,5.0;" x1="115" x2="115" y1="118.5938" y2="551.5859"/><line style="stroke:#181818;stroke-width:0.5;stroke-dasharray:5.0,5.0;" x1="451.5" x2="451.5" y1="118.5938" y2="551.5859"/><line style="stroke:#181818;stroke-width:0.5;stroke-dasharray:5.0,5.0;" x1="696" x2="696" y1="118.5938" y2="551.5859"/><line style="stroke:#181818;stroke-width:0.5;stroke-dasharray:5.0,5.0;" x1="811" x2="811" y1="118.5938" y2="551.5859"/><text fill="#000000" font-family="sans-serif" font-size="14" lengthAdjust="spacing" textLength="32" x="96" y="115.292">User</text><ellipse cx="115" cy="50.7969" fill="#E2E2F0" rx="8" ry="8" style="stroke:#181818;stroke-width:0.5;"/><path d="M115,58.7969 L115,85.7969 M102,66.7969 L128,66.7969 M115,85.7969 L102,100.7969 M115,85.7969 L128,100.7969 " fill="none" style="stroke:#181818;stroke-width:0.5;"/><text fill="#000000" font-family="sans-serif" font-size="14" lengthAdjust="spacing" textLength="32" x="96" y="563.5811">User</text><ellipse cx="115" cy="575.3828" fill="#E2E2F0" rx="8" ry="8" style="stroke:#181818;stroke-width:0.5;"/><path d="M115,583.3828 L115,610.3828 M102,591.3828 L128,591.3828 M115,610.3828 L102,625.3828 M115,610.3828 L128,625.3828 " fill="none" style="stroke:#181818;stroke-width:0.5;"/><rect fill="#E2E2F0" height="30.2969" rx="2.5" ry="2.5" style="stroke:#181818;stroke-width:0.5;" width="157" x="373.5" y="87.2969"/><text fill="#000000" font-family="sans-serif" font-size="14" lengthAdjust="spacing" textLength="143" x="380.5" y="107.292">Appointment Service</text><rect fill="#E2E2F0" height="30.2969" rx="2.5" ry="2.5" style="stroke:#181818;stroke-width:0.5;" width="157" x="373.5" y="550.5859"/><text fill="#000000" font-family="sans-serif" font-size="14" lengthAdjust="spacing" textLength="143" x="380.5" y="570.5811">Appointment Service</text><path d="M636,92.2969 L756,92.2969 C761,92.2969 761,105.4453 761,105.4453 C761,105.4453 761,118.5938 756,118.5938 L636,118.5938 C631,118.5938 631,105.4453 631,105.4453 C631,105.4453 631,92.2969 636,92.2969 " fill="#E2E2F0" style="stroke:#181818;stroke-width:0.5;"/><path d="M756,92.2969 C751,92.2969 751,105.4453 751,105.4453 C751,118.5938 756,118.5938 756,118.5938 " fill="none" style="stroke:#181818;stroke-width:0.5;"/><text fill="#000000" font-family="sans-serif" font-size="14" lengthAdjust="spacing" textLength="110" x="636" y="110.292">Feedback Topic</text><path d="M636,550.5859 L756,550.5859 C761,550.5859 761,563.7344 761,563.7344 C761,563.7344 761,576.8828 756,576.8828 L636,576.8828 C631,576.8828 631,563.7344 631,563.7344 C631,563.7344 631,550.5859 636,550.5859 " fill="#E2E2F0" style="stroke:#181818;stroke-width:0.5;"/><path d="M756,550.5859 C751,550.5859 751,563.7344 751,563.7344 C751,576.8828 756,576.8828 756,576.8828 " fill="none" style="stroke:#181818;stroke-width:0.5;"/><text fill="#000000" font-family="sans-serif" font-size="14" lengthAdjust="spacing" textLength="110" x="636" y="568.5811">Feedback Topic</text><rect fill="#E2E2F0" height="30.2969" rx="2.5" ry="2.5" style="stroke:#181818;stroke-width:0.5;" width="80" x="771" y="87.2969"/><text fill="#000000" font-family="sans-serif" font-size="14" lengthAdjust="spacing" textLength="66" x="778" y="107.292">Database</text><rect fill="#E2E2F0" height="30.2969" rx="2.5" ry="2.5" style="stroke:#181818;stroke-width:0.5;" width="80" x="771" y="550.5859"/><text fill="#000000" font-family="sans-serif" font-size="14" lengthAdjust="spacing" textLength="66" x="778" y="570.5811">Database</text><rect fill="#FFFFFF" height="318.4609" style="stroke:#181818;stroke-width:1.0;" width="10" x="447" y="215.125"/><path d="M5,133.5938 L5,173.5938 L225,173.5938 L225,143.5938 L215,133.5938 L5,133.5938 " fill="#FEFFDD" style="stroke:#181818;stroke-width:0.5;"/><path d="M215,133.5938 L215,143.5938 L225,143.5938 L215,133.5938 " fill="#FEFFDD" style="stroke:#181818;stroke-width:0.5;"/><text fill="#000000" font-family="sans-serif" font-size="13" lengthAdjust="spacing" textLength="199" x="11" y="150.6606">Neste exemplo, o usu&#225;rio deve</text><text fill="#000000" font-family="sans-serif" font-size="13" lengthAdjust="spacing" textLength="45" x="11" y="165.7935">ser um</text><text fill="#000000" font-family="sans-serif" font-size="13" font-weight="bold" lengthAdjust="spacing" textLength="64" x="60" y="165.7935">paciente</text><text fill="#000000" font-family="sans-serif" font-size="13" lengthAdjust="spacing" textLength="4" x="124" y="165.7935">.</text><polygon fill="#181818" points="435,211.125,445,215.125,435,219.125,439,215.125" style="stroke:#181818;stroke-width:1.0;"/><line style="stroke:#181818;stroke-width:1.0;" x1="115" x2="441" y1="215.125" y2="215.125"/><text fill="#000000" font-family="sans-serif" font-size="13" lengthAdjust="spacing" textLength="313" x="122" y="194.9263">POST /appointments/{appointmentId}/feedbacks</text><text fill="#000000" font-family="sans-serif" font-size="13" lengthAdjust="spacing" textLength="78" x="122" y="210.0591">(Bearer JWT)</text><line style="stroke:#181818;stroke-width:1.0;" x1="457" x2="499" y1="259.3906" y2="259.3906"/><line style="stroke:#181818;stroke-width:1.0;" x1="499" x2="499" y1="259.3906" y2="272.3906"/><line style="stroke:#181818;stroke-width:1.0;" x1="458" x2="499" y1="272.3906" y2="272.3906"/><polygon fill="#181818" points="468,268.3906,458,272.3906,468,276.3906,464,272.3906" style="stroke:#181818;stroke-width:1.0;"/><text fill="#000000" font-family="sans-serif" font-size="13" lengthAdjust="spacing" textLength="192" x="464" y="239.1919">Deve ser informada uma nota</text><text fill="#000000" font-family="sans-serif" font-size="13" lengthAdjust="spacing" textLength="110" x="464" y="254.3247">e um coment&#225;rio</text><polygon fill="#181818" points="799,297.5234,809,301.5234,799,305.5234,803,301.5234" style="stroke:#181818;stroke-width:1.0;"/><line style="stroke:#181818;stroke-width:1.0;" x1="457" x2="805" y1="301.5234" y2="301.5234"/><text fill="#000000" font-family="sans-serif" font-size="13" lengthAdjust="spacing" textLength="126" x="464" y="296.4575">Carregar a consulta</text><polygon fill="#181818" points="468,326.6563,458,330.6563,468,334.6563,464,330.6563" style="stroke:#181818;stroke-width:1.0;"/><line style="stroke:#181818;stroke-width:1.0;stroke-dasharray:2.0,2.0;" x1="462" x2="810" y1="330.6563" y2="330.6563"/><text fill="#000000" font-family="sans-serif" font-size="13" lengthAdjust="spacing" textLength="120" x="474" y="325.5903">Retorna a consulta</text><line style="stroke:#181818;stroke-width:1.0;" x1="457" x2="499" y1="359.7891" y2="359.7891"/><line style="stroke:#181818;stroke-width:1.0;" x1="499" x2="499" y1="359.7891" y2="372.7891"/><line style="stroke:#181818;stroke-width:1.0;" x1="458" x2="499" y1="372.7891" y2="372.7891"/><polygon fill="#181818" points="468,368.7891,458,372.7891,468,376.7891,464,372.7891" style="stroke:#181818;stroke-width:1.0;"/><text fill="#000000" font-family="sans-serif" font-size="13" lengthAdjust="spacing" textLength="220" x="464" y="354.7231">Criar um novo evento de feedback</text><polygon fill="#181818" points="684,413.0547,694,417.0547,684,421.0547,688,417.0547" style="stroke:#181818;stroke-width:1.0;"/><line style="stroke:#181818;stroke-width:1.0;" x1="457" x2="690" y1="417.0547" y2="417.0547"/><text fill="#000000" font-family="sans-serif" font-size="13" lengthAdjust="spacing" textLength="144" x="464" y="396.856">Enviar um evento com</text><text fill="#000000" font-family="sans-serif" font-size="13" lengthAdjust="spacing" textLength="156" x="464" y="411.9888">os detalhes do feedback</text><polygon fill="#181818" points="468,442.1875,458,446.1875,468,450.1875,464,446.1875" style="stroke:#181818;stroke-width:1.0;"/><line style="stroke:#181818;stroke-width:1.0;stroke-dasharray:2.0,2.0;" x1="462" x2="695" y1="446.1875" y2="446.1875"/><text fill="#000000" font-family="sans-serif" font-size="13" lengthAdjust="spacing" textLength="181" x="474" y="441.1216">Retornar o ID da mensagem</text><polygon fill="#181818" points="799,471.3203,809,475.3203,799,479.3203,803,475.3203" style="stroke:#181818;stroke-width:1.0;"/><line style="stroke:#181818;stroke-width:1.0;" x1="457" x2="805" y1="475.3203" y2="475.3203"/><text fill="#000000" font-family="sans-serif" font-size="13" lengthAdjust="spacing" textLength="217" x="464" y="470.2544">Armazenar os detalhes do evento</text><polygon fill="#181818" points="468,500.4531,458,504.4531,468,508.4531,464,504.4531" style="stroke:#181818;stroke-width:1.0;"/><line style="stroke:#181818;stroke-width:1.0;stroke-dasharray:2.0,2.0;" x1="462" x2="810" y1="504.4531" y2="504.4531"/><text fill="#000000" font-family="sans-serif" font-size="13" lengthAdjust="spacing" textLength="129" x="474" y="499.3872">Evento armazenado</text><polygon fill="#181818" points="126,529.5859,116,533.5859,126,537.5859,122,533.5859" style="stroke:#181818;stroke-width:1.0;"/><line style="stroke:#181818;stroke-width:1.0;stroke-dasharray:2.0,2.0;" x1="120" x2="451" y1="533.5859" y2="533.5859"/><text fill="#000000" font-family="sans-serif" font-size="13" lengthAdjust="spacing" textLength="69" x="132" y="528.52">201 Criado</text><!--SRC=[bL91JiCm4Bpx5QkU8A8KEEQ0LDeYbGCWAE9I2MsJRR58x60x4GBn6Dx2nrWxYTfA3OMRrzwPp4p6IPSHJ5GbDQG4bqJf0fCN8J1nsa3lmPBf0Lee-I0AD4ucia3be3Si2YsLouc7UpALJ2Xiulh-oTRtuhMaag3NqiDC5p89sywVjed7w721jcPBcq48fHs1hiZKMgx9yanlb1UPFWBDj-Ntbma-AXBMx-KGHGKcagLG51qBKYbu6Y4y1VJFTucDuVRcVWQ3ZISx-DYOfkddODauiNDrS45ecEtgSNOOSfCLih9TCUouwnGnPXVWLKgrr2R75DaFUlauL-Iz9TeZWkSkvZQz64Pe3AtG039EsJ9pADfNw7U9k2DkWS9Dq7yyZ8p4y1kKhZIm8UL2pThqkiX2AU9GonhVGDdnN6ak1JdCdeaFUiqLG7kj66xATCp103zRN56-FxiXn_zE0RlzxLhM7tASrFgn8KexVXZ3VJ5ZE3iv3U7nOag_Lahy0000]--></g></svg>