<?xml version="1.0" encoding="us-ascii" standalone="no"?><svg xmlns="http://www.w3.org/2000/svg" xmlns:xlink="http://www.w3.org/1999/xlink" contentStyleType="text/css" height="537px" preserveAspectRatio="none" style="width:564px;height:537px;background:#FFFFFF;" version="1.1" viewBox="0 0 564 537" width="564px" zoomAndPan="magnify"><defs/><g><text fill="#000000" font-family="sans-serif" font-size="14" font-weight="bold" lengthAdjust="spacing" textLength="149" x="206.5" y="27.9951">Acesso de Arquivo</text><rect fill="#FFFFFF" height="224.0625" style="stroke:#181818;stroke-width:1.0;" width="10" x="298" y="215.125"/><line style="stroke:#181818;stroke-width:0.5;stroke-dasharray:5.0,5.0;" x1="115" x2="115" y1="118.5938" y2="457.1875"/><line style="stroke:#181818;stroke-width:0.5;stroke-dasharray:5.0,5.0;" x1="302.5" x2="302.5" y1="118.5938" y2="457.1875"/><line style="stroke:#181818;stroke-width:0.5;stroke-dasharray:5.0,5.0;" x1="518" x2="518" y1="118.5938" y2="457.1875"/><text fill="#000000" font-family="sans-serif" font-size="14" lengthAdjust="spacing" textLength="32" x="96" y="115.292">User</text><ellipse cx="115" cy="50.7969" fill="#E2E2F0" rx="8" ry="8" style="stroke:#181818;stroke-width:0.5;"/><path d="M115,58.7969 L115,85.7969 M102,66.7969 L128,66.7969 M115,85.7969 L102,100.7969 M115,85.7969 L128,100.7969 " fill="none" style="stroke:#181818;stroke-width:0.5;"/><text fill="#000000" font-family="sans-serif" font-size="14" lengthAdjust="spacing" textLength="32" x="96" y="469.1826">User</text><ellipse cx="115" cy="480.9844" fill="#E2E2F0" rx="8" ry="8" style="stroke:#181818;stroke-width:0.5;"/><path d="M115,488.9844 L115,515.9844 M102,496.9844 L128,496.9844 M115,515.9844 L102,530.9844 M115,515.9844 L128,530.9844 " fill="none" style="stroke:#181818;stroke-width:0.5;"/><rect fill="#E2E2F0" height="30.2969" rx="2.5" ry="2.5" style="stroke:#181818;stroke-width:0.5;" width="157" x="224.5" y="87.2969"/><text fill="#000000" font-family="sans-serif" font-size="14" lengthAdjust="spacing" textLength="143" x="231.5" y="107.292">Appointment Service</text><rect fill="#E2E2F0" height="30.2969" rx="2.5" ry="2.5" style="stroke:#181818;stroke-width:0.5;" width="157" x="224.5" y="456.1875"/><text fill="#000000" font-family="sans-serif" font-size="14" lengthAdjust="spacing" textLength="143" x="231.5" y="476.1826">Appointment Service</text><rect fill="#E2E2F0" height="30.2969" rx="2.5" ry="2.5" style="stroke:#181818;stroke-width:0.5;" width="80" x="478" y="87.2969"/><text fill="#000000" font-family="sans-serif" font-size="14" lengthAdjust="spacing" textLength="66" x="485" y="107.292">Database</text><rect fill="#E2E2F0" height="30.2969" rx="2.5" ry="2.5" style="stroke:#181818;stroke-width:0.5;" width="80" x="478" y="456.1875"/><text fill="#000000" font-family="sans-serif" font-size="14" lengthAdjust="spacing" textLength="66" x="485" y="476.1826">Database</text><rect fill="#FFFFFF" height="224.0625" style="stroke:#181818;stroke-width:1.0;" width="10" x="298" y="215.125"/><path d="M5,133.5938 L5,173.5938 L225,173.5938 L225,143.5938 L215,133.5938 L5,133.5938 " fill="#FEFFDD" style="stroke:#181818;stroke-width:0.5;"/><path d="M215,133.5938 L215,143.5938 L225,143.5938 L215,133.5938 " fill="#FEFFDD" style="stroke:#181818;stroke-width:0.5;"/><text fill="#000000" font-family="sans-serif" font-size="13" lengthAdjust="spacing" textLength="199" x="11" y="150.6606">Neste exemplo, o usu&#225;rio deve</text><text fill="#000000" font-family="sans-serif" font-size="13" lengthAdjust="spacing" textLength="45" x="11" y="165.7935">ser um</text><text fill="#000000" font-family="sans-serif" font-size="13" font-weight="bold" lengthAdjust="spacing" textLength="64" x="60" y="165.7935">paciente</text><text fill="#000000" font-family="sans-serif" font-size="13" lengthAdjust="spacing" textLength="4" x="124" y="165.7935">.</text><polygon fill="#181818" points="286,211.125,296,215.125,286,219.125,290,215.125" style="stroke:#181818;stroke-width:1.0;"/><line style="stroke:#181818;stroke-width:1.0;" x1="115" x2="292" y1="215.125" y2="215.125"/><text fill="#000000" font-family="sans-serif" font-size="13" lengthAdjust="spacing" textLength="164" x="122" y="194.9263">POST /files/{fileId}/access</text><text fill="#000000" font-family="sans-serif" font-size="13" lengthAdjust="spacing" textLength="78" x="122" y="210.0591">(Bearer JWT)</text><path d="M160,228.125 L160,283.125 L445,283.125 L445,238.125 L435,228.125 L160,228.125 " fill="#FEFFDD" style="stroke:#181818;stroke-width:0.5;"/><path d="M435,228.125 L435,238.125 L445,238.125 L435,228.125 " fill="#FEFFDD" style="stroke:#181818;stroke-width:0.5;"/><text fill="#000000" font-family="sans-serif" font-size="13" lengthAdjust="spacing" textLength="264" x="166" y="245.1919">O paciente deve informar quem (m&#233;dico)</text><text fill="#000000" font-family="sans-serif" font-size="13" lengthAdjust="spacing" textLength="158" x="166" y="260.3247">ter&#225; acesso ao arquivo e</text><text fill="#000000" font-family="sans-serif" font-size="13" lengthAdjust="spacing" textLength="143" x="166" y="275.4575">uma data de validade.</text><line style="stroke:#181818;stroke-width:1.0;" x1="308" x2="350" y1="309.6563" y2="309.6563"/><line style="stroke:#181818;stroke-width:1.0;" x1="350" x2="350" y1="309.6563" y2="322.6563"/><line style="stroke:#181818;stroke-width:1.0;" x1="309" x2="350" y1="322.6563" y2="322.6563"/><polygon fill="#181818" points="319,318.6563,309,322.6563,319,326.6563,315,322.6563" style="stroke:#181818;stroke-width:1.0;"/><text fill="#000000" font-family="sans-serif" font-size="13" lengthAdjust="spacing" textLength="191" x="315" y="304.5903">Validar os detalhes do acesso</text><polygon fill="#181818" points="506,347.7891,516,351.7891,506,355.7891,510,351.7891" style="stroke:#181818;stroke-width:1.0;"/><line style="stroke:#181818;stroke-width:1.0;" x1="308" x2="512" y1="351.7891" y2="351.7891"/><text fill="#000000" font-family="sans-serif" font-size="13" lengthAdjust="spacing" textLength="119" x="315" y="346.7231">Carregar o arquivo</text><polygon fill="#181818" points="506,376.9219,516,380.9219,506,384.9219,510,380.9219" style="stroke:#181818;stroke-width:1.0;"/><line style="stroke:#181818;stroke-width:1.0;" x1="308" x2="512" y1="380.9219" y2="380.9219"/><text fill="#000000" font-family="sans-serif" font-size="13" lengthAdjust="spacing" textLength="139" x="315" y="375.856">Criar um novo acesso</text><polygon fill="#181818" points="319,406.0547,309,410.0547,319,414.0547,315,410.0547" style="stroke:#181818;stroke-width:1.0;"/><line style="stroke:#181818;stroke-width:1.0;stroke-dasharray:2.0,2.0;" x1="313" x2="517" y1="410.0547" y2="410.0547"/><text fill="#000000" font-family="sans-serif" font-size="13" lengthAdjust="spacing" textLength="101" x="325" y="404.9888">Salvar o acesso</text><polygon fill="#181818" points="126,435.1875,116,439.1875,126,443.1875,122,439.1875" style="stroke:#181818;stroke-width:1.0;"/><line style="stroke:#181818;stroke-width:1.0;stroke-dasharray:2.0,2.0;" x1="120" x2="302" y1="439.1875" y2="439.1875"/><text fill="#000000" font-family="sans-serif" font-size="13" lengthAdjust="spacing" textLength="69" x="132" y="434.1216">201 Criado</text><!--SRC=[ZL71JiCm3BtdAwoTjefHuBW3qe0B71ZI1boGa6ayYDGcdPD6I8YFsP7ls8-Hf2iCgPkGAjLs_FoU_Pno9S6q86iDo13ngb7U2865Cmo3Uqiy0BJGX43Ko4uLgaRjO32jQwEqgoWaSsAl2agT-5j_jctzB_0A7RwWRRlbDX526qTWF77BTKisvFHELLsQ8p2XscpMhA9CJyB6lWgohCP21IhAicD1Ma8S8qGS0UFpFZ4Jk9lD5v0lLKas_uY_Q_cPOn6FyAI75uGSm3UFYr4wW_8OXFHjjIEvxta6dROa6PHU6gwGOTLG1SDgyoLLOKR24M_MWAq76BxM0o3HL9WE59tnM2g9adQtx67Tk_H3mZEOS7DoMBvH2CoMTj-apfq9N28plKPyf-yV65QONDB6_p1rpp3UftIEfM-93cWBuEZn1CvEJXEH3AFfe5tV]--></g></svg>