<?xml version="1.0" encoding="us-ascii" standalone="no"?><svg xmlns="http://www.w3.org/2000/svg" xmlns:xlink="http://www.w3.org/1999/xlink" contentStyleType="text/css" height="553px" preserveAspectRatio="none" style="width:508px;height:553px;background:#FFFFFF;" version="1.1" viewBox="0 0 508 553" width="508px" zoomAndPan="magnify"><defs/><g><text fill="#000000" font-family="sans-serif" font-size="14" font-weight="bold" lengthAdjust="spacing" textLength="211" x="147.5" y="27.9951">Managing File Access Flow</text><rect fill="#FFFFFF" height="239.1953" style="stroke:#181818;stroke-width:1.0;" width="10" x="296" y="215.125"/><line style="stroke:#181818;stroke-width:0.5;stroke-dasharray:5.0,5.0;" x1="113" x2="113" y1="118.5938" y2="472.3203"/><line style="stroke:#181818;stroke-width:0.5;stroke-dasharray:5.0,5.0;" x1="300.5" x2="300.5" y1="118.5938" y2="472.3203"/><line style="stroke:#181818;stroke-width:0.5;stroke-dasharray:5.0,5.0;" x1="462" x2="462" y1="118.5938" y2="472.3203"/><text fill="#000000" font-family="sans-serif" font-size="14" lengthAdjust="spacing" textLength="32" x="94" y="115.292">User</text><ellipse cx="113" cy="50.7969" fill="#E2E2F0" rx="8" ry="8" style="stroke:#181818;stroke-width:0.5;"/><path d="M113,58.7969 L113,85.7969 M100,66.7969 L126,66.7969 M113,85.7969 L100,100.7969 M113,85.7969 L126,100.7969 " fill="none" style="stroke:#181818;stroke-width:0.5;"/><text fill="#000000" font-family="sans-serif" font-size="14" lengthAdjust="spacing" textLength="32" x="94" y="484.3154">User</text><ellipse cx="113" cy="496.1172" fill="#E2E2F0" rx="8" ry="8" style="stroke:#181818;stroke-width:0.5;"/><path d="M113,504.1172 L113,531.1172 M100,512.1172 L126,512.1172 M113,531.1172 L100,546.1172 M113,531.1172 L126,546.1172 " fill="none" style="stroke:#181818;stroke-width:0.5;"/><rect fill="#E2E2F0" height="30.2969" rx="2.5" ry="2.5" style="stroke:#181818;stroke-width:0.5;" width="157" x="222.5" y="87.2969"/><text fill="#000000" font-family="sans-serif" font-size="14" lengthAdjust="spacing" textLength="143" x="229.5" y="107.292">Appointment Service</text><rect fill="#E2E2F0" height="30.2969" rx="2.5" ry="2.5" style="stroke:#181818;stroke-width:0.5;" width="157" x="222.5" y="471.3203"/><text fill="#000000" font-family="sans-serif" font-size="14" lengthAdjust="spacing" textLength="143" x="229.5" y="491.3154">Appointment Service</text><rect fill="#E2E2F0" height="30.2969" rx="2.5" ry="2.5" style="stroke:#181818;stroke-width:0.5;" width="80" x="422" y="87.2969"/><text fill="#000000" font-family="sans-serif" font-size="14" lengthAdjust="spacing" textLength="66" x="429" y="107.292">Database</text><rect fill="#E2E2F0" height="30.2969" rx="2.5" ry="2.5" style="stroke:#181818;stroke-width:0.5;" width="80" x="422" y="471.3203"/><text fill="#000000" font-family="sans-serif" font-size="14" lengthAdjust="spacing" textLength="66" x="429" y="491.3154">Database</text><rect fill="#FFFFFF" height="239.1953" style="stroke:#181818;stroke-width:1.0;" width="10" x="296" y="215.125"/><path d="M5,133.5938 L5,173.5938 L221,173.5938 L221,143.5938 L211,133.5938 L5,133.5938 " fill="#FEFFDD" style="stroke:#181818;stroke-width:0.5;"/><path d="M211,133.5938 L211,143.5938 L221,143.5938 L211,133.5938 " fill="#FEFFDD" style="stroke:#181818;stroke-width:0.5;"/><text fill="#000000" font-family="sans-serif" font-size="13" lengthAdjust="spacing" textLength="195" x="11" y="150.6606">In this example, the user must</text><text fill="#000000" font-family="sans-serif" font-size="13" lengthAdjust="spacing" textLength="28" x="11" y="165.7935">be a</text><text fill="#000000" font-family="sans-serif" font-size="13" font-weight="bold" lengthAdjust="spacing" textLength="53" x="43" y="165.7935">patient</text><text fill="#000000" font-family="sans-serif" font-size="13" lengthAdjust="spacing" textLength="4" x="96" y="165.7935">.</text><polygon fill="#181818" points="284,211.125,294,215.125,284,219.125,288,215.125" style="stroke:#181818;stroke-width:1.0;"/><line style="stroke:#181818;stroke-width:1.0;" x1="113" x2="290" y1="215.125" y2="215.125"/><text fill="#000000" font-family="sans-serif" font-size="13" lengthAdjust="spacing" textLength="164" x="120" y="194.9263">POST /files/{fileId}/access</text><text fill="#000000" font-family="sans-serif" font-size="13" lengthAdjust="spacing" textLength="78" x="120" y="210.0591">(Bearer JWT)</text><path d="M171,228.125 L171,283.125 L430,283.125 L430,238.125 L420,228.125 L171,228.125 " fill="#FEFFDD" style="stroke:#181818;stroke-width:0.5;"/><path d="M420,228.125 L420,238.125 L430,238.125 L420,228.125 " fill="#FEFFDD" style="stroke:#181818;stroke-width:0.5;"/><text fill="#000000" font-family="sans-serif" font-size="13" lengthAdjust="spacing" textLength="238" x="177" y="245.1919">The patient must inform who (doctor)</text><text fill="#000000" font-family="sans-serif" font-size="13" lengthAdjust="spacing" textLength="193" x="177" y="260.3247">will have access to the file and</text><text fill="#000000" font-family="sans-serif" font-size="13" lengthAdjust="spacing" textLength="120" x="177" y="275.4575">an expiration date.</text><line style="stroke:#181818;stroke-width:1.0;" x1="306" x2="348" y1="324.7891" y2="324.7891"/><line style="stroke:#181818;stroke-width:1.0;" x1="348" x2="348" y1="324.7891" y2="337.7891"/><line style="stroke:#181818;stroke-width:1.0;" x1="307" x2="348" y1="337.7891" y2="337.7891"/><polygon fill="#181818" points="317,333.7891,307,337.7891,317,341.7891,313,337.7891" style="stroke:#181818;stroke-width:1.0;"/><text fill="#000000" font-family="sans-serif" font-size="13" lengthAdjust="spacing" textLength="125" x="313" y="304.5903">Validate the access</text><text fill="#000000" font-family="sans-serif" font-size="13" lengthAdjust="spacing" textLength="42" x="313" y="319.7231">details</text><polygon fill="#181818" points="450,362.9219,460,366.9219,450,370.9219,454,366.9219" style="stroke:#181818;stroke-width:1.0;"/><line style="stroke:#181818;stroke-width:1.0;" x1="306" x2="456" y1="366.9219" y2="366.9219"/><text fill="#000000" font-family="sans-serif" font-size="13" lengthAdjust="spacing" textLength="78" x="313" y="361.856">Load the file</text><polygon fill="#181818" points="450,392.0547,460,396.0547,450,400.0547,454,396.0547" style="stroke:#181818;stroke-width:1.0;"/><line style="stroke:#181818;stroke-width:1.0;" x1="306" x2="456" y1="396.0547" y2="396.0547"/><text fill="#000000" font-family="sans-serif" font-size="13" lengthAdjust="spacing" textLength="132" x="313" y="390.9888">Create a new access</text><polygon fill="#181818" points="317,421.1875,307,425.1875,317,429.1875,313,425.1875" style="stroke:#181818;stroke-width:1.0;"/><line style="stroke:#181818;stroke-width:1.0;stroke-dasharray:2.0,2.0;" x1="311" x2="461" y1="425.1875" y2="425.1875"/><text fill="#000000" font-family="sans-serif" font-size="13" lengthAdjust="spacing" textLength="105" x="323" y="420.1216">Save the access</text><polygon fill="#181818" points="124,450.3203,114,454.3203,124,458.3203,120,454.3203" style="stroke:#181818;stroke-width:1.0;"/><line style="stroke:#181818;stroke-width:1.0;stroke-dasharray:2.0,2.0;" x1="118" x2="300" y1="454.3203" y2="454.3203"/><text fill="#000000" font-family="sans-serif" font-size="13" lengthAdjust="spacing" textLength="79" x="130" y="449.2544">201 Created</text><!--SRC=[XL5BImCn4BxdLmmzjOkrwh47eIg5YgBGgfU2J3VJTY2RB4cwAuZ_tIIxjHMsUahc-Jt6irS4ZwXnmte3KmxH9C_9EPWgKmk1kJSMUY-ER0_GmIvyH8dMSyubQW-zILaQrhwW4Cp9LfnJwiH3_jqr-T-3T-XnXQxfbcqWX3QUm5Ha6woP1hzb1_I1HQdeB4IKAb3id1Sh0eGiAz5p0CgoSq5QGjmXHEeQNdSn6SFpqtm1etKGx4QVyPd9hn4cwKlTlo6qOVZ-RJ587d25WLMNf2E-NUL5ODkIIuI1zThO0kgjWRuqqTs1g5afs68L41hllKao8or0BGNgeBza6nOP7RsYOvqTk2TblwBYE9_sx-LAyiZAdLgqlyqO7WpA7sR_jzzQIhQ1fhe54_ig34zHd4SZ3lIwOS9mFEyOhYukMnmf9Frvgcy0]--></g></svg>