<?xml version="1.0" encoding="us-ascii" standalone="no"?><svg xmlns="http://www.w3.org/2000/svg" xmlns:xlink="http://www.w3.org/1999/xlink" contentStyleType="text/css" height="550px" preserveAspectRatio="none" style="width:627px;height:550px;background:#FFFFFF;" version="1.1" viewBox="0 0 627 550" width="627px" zoomAndPan="magnify"><defs/><g><text fill="#000000" font-family="sans-serif" font-size="14" font-weight="bold" lengthAdjust="spacing" textLength="141" x="242" y="27.9951">Getting Files Flow</text><rect fill="#FFFFFF" height="237.0625" style="stroke:#181818;stroke-width:1.0;" width="10" x="396" y="215.125"/><line style="stroke:#181818;stroke-width:0.5;stroke-dasharray:5.0,5.0;" x1="113" x2="113" y1="118.5938" y2="470.1875"/><line style="stroke:#181818;stroke-width:0.5;stroke-dasharray:5.0,5.0;" x1="400.5" x2="400.5" y1="118.5938" y2="470.1875"/><line style="stroke:#181818;stroke-width:0.5;stroke-dasharray:5.0,5.0;" x1="581" x2="581" y1="118.5938" y2="470.1875"/><text fill="#000000" font-family="sans-serif" font-size="14" lengthAdjust="spacing" textLength="32" x="94" y="115.292">User</text><ellipse cx="113" cy="50.7969" fill="#E2E2F0" rx="8" ry="8" style="stroke:#181818;stroke-width:0.5;"/><path d="M113,58.7969 L113,85.7969 M100,66.7969 L126,66.7969 M113,85.7969 L100,100.7969 M113,85.7969 L126,100.7969 " fill="none" style="stroke:#181818;stroke-width:0.5;"/><text fill="#000000" font-family="sans-serif" font-size="14" lengthAdjust="spacing" textLength="32" x="94" y="482.1826">User</text><ellipse cx="113" cy="493.9844" fill="#E2E2F0" rx="8" ry="8" style="stroke:#181818;stroke-width:0.5;"/><path d="M113,501.9844 L113,528.9844 M100,509.9844 L126,509.9844 M113,528.9844 L100,543.9844 M113,528.9844 L126,543.9844 " fill="none" style="stroke:#181818;stroke-width:0.5;"/><rect fill="#E2E2F0" height="30.2969" rx="2.5" ry="2.5" style="stroke:#181818;stroke-width:0.5;" width="157" x="322.5" y="87.2969"/><text fill="#000000" font-family="sans-serif" font-size="14" lengthAdjust="spacing" textLength="143" x="329.5" y="107.292">Appointment Service</text><rect fill="#E2E2F0" height="30.2969" rx="2.5" ry="2.5" style="stroke:#181818;stroke-width:0.5;" width="157" x="322.5" y="469.1875"/><text fill="#000000" font-family="sans-serif" font-size="14" lengthAdjust="spacing" textLength="143" x="329.5" y="489.1826">Appointment Service</text><rect fill="#E2E2F0" height="30.2969" rx="2.5" ry="2.5" style="stroke:#181818;stroke-width:0.5;" width="80" x="541" y="87.2969"/><text fill="#000000" font-family="sans-serif" font-size="14" lengthAdjust="spacing" textLength="66" x="548" y="107.292">Database</text><rect fill="#E2E2F0" height="30.2969" rx="2.5" ry="2.5" style="stroke:#181818;stroke-width:0.5;" width="80" x="541" y="469.1875"/><text fill="#000000" font-family="sans-serif" font-size="14" lengthAdjust="spacing" textLength="66" x="548" y="489.1826">Database</text><rect fill="#FFFFFF" height="237.0625" style="stroke:#181818;stroke-width:1.0;" width="10" x="396" y="215.125"/><path d="M5,133.5938 L5,173.5938 L221,173.5938 L221,143.5938 L211,133.5938 L5,133.5938 " fill="#FEFFDD" style="stroke:#181818;stroke-width:0.5;"/><path d="M211,133.5938 L211,143.5938 L221,143.5938 L211,133.5938 " fill="#FEFFDD" style="stroke:#181818;stroke-width:0.5;"/><text fill="#000000" font-family="sans-serif" font-size="13" lengthAdjust="spacing" textLength="195" x="11" y="150.6606">In this example, the user must</text><text fill="#000000" font-family="sans-serif" font-size="13" lengthAdjust="spacing" textLength="28" x="11" y="165.7935">be a</text><text fill="#000000" font-family="sans-serif" font-size="13" font-weight="bold" lengthAdjust="spacing" textLength="48" x="43" y="165.7935">doctor</text><text fill="#000000" font-family="sans-serif" font-size="13" lengthAdjust="spacing" textLength="4" x="91" y="165.7935">.</text><polygon fill="#181818" points="384,211.125,394,215.125,384,219.125,388,215.125" style="stroke:#181818;stroke-width:1.0;"/><line style="stroke:#181818;stroke-width:1.0;" x1="113" x2="390" y1="215.125" y2="215.125"/><text fill="#000000" font-family="sans-serif" font-size="13" lengthAdjust="spacing" textLength="264" x="120" y="194.9263">GET /appointments/{appointmentId}/files</text><text fill="#000000" font-family="sans-serif" font-size="13" lengthAdjust="spacing" textLength="78" x="120" y="210.0591">(Bearer JWT)</text><path d="M283,228.125 L283,283.125 L518,283.125 L518,238.125 L508,228.125 L283,228.125 " fill="#FEFFDD" style="stroke:#181818;stroke-width:0.5;"/><path d="M508,228.125 L508,238.125 L518,238.125 L508,228.125 " fill="#FEFFDD" style="stroke:#181818;stroke-width:0.5;"/><text fill="#000000" font-family="sans-serif" font-size="13" lengthAdjust="spacing" textLength="214" x="289" y="245.1919">The doctor must be authorized to</text><text fill="#000000" font-family="sans-serif" font-size="13" lengthAdjust="spacing" textLength="200" x="289" y="260.3247">access the files for that specific</text><text fill="#000000" font-family="sans-serif" font-size="13" lengthAdjust="spacing" textLength="86" x="289" y="275.4575">appointment.</text><line style="stroke:#181818;stroke-width:1.0;" x1="406" x2="448" y1="309.6563" y2="309.6563"/><line style="stroke:#181818;stroke-width:1.0;" x1="448" x2="448" y1="309.6563" y2="322.6563"/><line style="stroke:#181818;stroke-width:1.0;" x1="407" x2="448" y1="322.6563" y2="322.6563"/><polygon fill="#181818" points="417,318.6563,407,322.6563,417,326.6563,413,322.6563" style="stroke:#181818;stroke-width:1.0;"/><text fill="#000000" font-family="sans-serif" font-size="13" lengthAdjust="spacing" textLength="108" x="413" y="304.5903">Load files access</text><polygon fill="#181818" points="417,347.7891,407,351.7891,417,355.7891,413,351.7891" style="stroke:#181818;stroke-width:1.0;"/><line style="stroke:#181818;stroke-width:1.0;stroke-dasharray:2.0,2.0;" x1="411" x2="580" y1="351.7891" y2="351.7891"/><text fill="#000000" font-family="sans-serif" font-size="13" lengthAdjust="spacing" textLength="151" x="423" y="346.7231">Returns the files access</text><line style="stroke:#181818;stroke-width:1.0;" x1="406" x2="448" y1="380.9219" y2="380.9219"/><line style="stroke:#181818;stroke-width:1.0;" x1="448" x2="448" y1="380.9219" y2="393.9219"/><line style="stroke:#181818;stroke-width:1.0;" x1="407" x2="448" y1="393.9219" y2="393.9219"/><polygon fill="#181818" points="417,389.9219,407,393.9219,417,397.9219,413,393.9219" style="stroke:#181818;stroke-width:1.0;"/><text fill="#000000" font-family="sans-serif" font-size="13" lengthAdjust="spacing" textLength="85" x="413" y="375.856">Load the files</text><polygon fill="#181818" points="417,419.0547,407,423.0547,417,427.0547,413,423.0547" style="stroke:#181818;stroke-width:1.0;"/><line style="stroke:#181818;stroke-width:1.0;stroke-dasharray:2.0,2.0;" x1="411" x2="580" y1="423.0547" y2="423.0547"/><text fill="#000000" font-family="sans-serif" font-size="13" lengthAdjust="spacing" textLength="103" x="423" y="417.9888">Returns the files</text><polygon fill="#181818" points="124,448.1875,114,452.1875,124,456.1875,120,452.1875" style="stroke:#181818;stroke-width:1.0;"/><line style="stroke:#181818;stroke-width:1.0;stroke-dasharray:2.0,2.0;" x1="118" x2="400" y1="452.1875" y2="452.1875"/><text fill="#000000" font-family="sans-serif" font-size="13" lengthAdjust="spacing" textLength="46" x="130" y="447.1216">200 OK</text><!--SRC=[dP71IiGm48RlUOfXJrfSktZSWw3eBgk2e1KlWimsKnjeav1CgoY-ksbQjK9Nq5icC_F_tyomuefWJSnAFy5ALUHXLPbd8J1dus1svydD03qquI4iEbQvigWPPYVM6gMvfX3SacjLJh4Il_yVVV__i_4C6RVe-sev149emmIc9TTxRJHmgJpG2zQseeCGKSn0tNWMMmA4996cuqoIGq5QGYSXH2oQ7q-1B65zda4wolZqRHHjv7jQT5juq7kdX2u8NTnd-t4TgiK0E3NT27qgdGNmdZEYGuVUS6cSUYK9R89uJjx70QCv5A6KIsJmbd9Lg5oCTCUZJjZjdFpAe1pqUqFnkNkOx-gv8MwS7gCDhNys_bBuZ-kqNMZlJhs4eyK2hY-5f5-lz040]--></g></svg>