<?xml version="1.0" encoding="us-ascii" standalone="no"?><svg xmlns="http://www.w3.org/2000/svg" xmlns:xlink="http://www.w3.org/1999/xlink" contentStyleType="text/css" height="401px" preserveAspectRatio="none" style="width:672px;height:401px;background:#FFFFFF;" version="1.1" viewBox="0 0 672 401" width="672px" zoomAndPan="magnify"><defs/><g><text fill="#000000" font-family="sans-serif" font-size="14" font-weight="bold" lengthAdjust="spacing" textLength="142" x="264" y="27.9951">Obt&#233;m Feedbacks</text><rect fill="#FFFFFF" height="87.3984" style="stroke:#181818;stroke-width:1.0;" width="10" x="448" y="215.125"/><line style="stroke:#181818;stroke-width:0.5;stroke-dasharray:5.0,5.0;" x1="125" x2="125" y1="118.5938" y2="320.5234"/><line style="stroke:#181818;stroke-width:0.5;stroke-dasharray:5.0,5.0;" x1="452.5" x2="452.5" y1="118.5938" y2="320.5234"/><line style="stroke:#181818;stroke-width:0.5;stroke-dasharray:5.0,5.0;" x1="626" x2="626" y1="118.5938" y2="320.5234"/><text fill="#000000" font-family="sans-serif" font-size="14" lengthAdjust="spacing" textLength="32" x="106" y="115.292">User</text><ellipse cx="125" cy="50.7969" fill="#E2E2F0" rx="8" ry="8" style="stroke:#181818;stroke-width:0.5;"/><path d="M125,58.7969 L125,85.7969 M112,66.7969 L138,66.7969 M125,85.7969 L112,100.7969 M125,85.7969 L138,100.7969 " fill="none" style="stroke:#181818;stroke-width:0.5;"/><text fill="#000000" font-family="sans-serif" font-size="14" lengthAdjust="spacing" textLength="32" x="106" y="332.5186">User</text><ellipse cx="125" cy="344.3203" fill="#E2E2F0" rx="8" ry="8" style="stroke:#181818;stroke-width:0.5;"/><path d="M125,352.3203 L125,379.3203 M112,360.3203 L138,360.3203 M125,379.3203 L112,394.3203 M125,379.3203 L138,394.3203 " fill="none" style="stroke:#181818;stroke-width:0.5;"/><rect fill="#E2E2F0" height="30.2969" rx="2.5" ry="2.5" style="stroke:#181818;stroke-width:0.5;" width="157" x="374.5" y="87.2969"/><text fill="#000000" font-family="sans-serif" font-size="14" lengthAdjust="spacing" textLength="143" x="381.5" y="107.292">Appointment Service</text><rect fill="#E2E2F0" height="30.2969" rx="2.5" ry="2.5" style="stroke:#181818;stroke-width:0.5;" width="157" x="374.5" y="319.5234"/><text fill="#000000" font-family="sans-serif" font-size="14" lengthAdjust="spacing" textLength="143" x="381.5" y="339.5186">Appointment Service</text><rect fill="#E2E2F0" height="30.2969" rx="2.5" ry="2.5" style="stroke:#181818;stroke-width:0.5;" width="80" x="586" y="87.2969"/><text fill="#000000" font-family="sans-serif" font-size="14" lengthAdjust="spacing" textLength="66" x="593" y="107.292">Database</text><rect fill="#E2E2F0" height="30.2969" rx="2.5" ry="2.5" style="stroke:#181818;stroke-width:0.5;" width="80" x="586" y="319.5234"/><text fill="#000000" font-family="sans-serif" font-size="14" lengthAdjust="spacing" textLength="66" x="593" y="339.5186">Database</text><rect fill="#FFFFFF" height="87.3984" style="stroke:#181818;stroke-width:1.0;" width="10" x="448" y="215.125"/><path d="M5,133.5938 L5,173.5938 L246,173.5938 L246,143.5938 L236,133.5938 L5,133.5938 " fill="#FEFFDD" style="stroke:#181818;stroke-width:0.5;"/><path d="M236,133.5938 L236,143.5938 L246,143.5938 L236,133.5938 " fill="#FEFFDD" style="stroke:#181818;stroke-width:0.5;"/><text fill="#000000" font-family="sans-serif" font-size="13" lengthAdjust="spacing" textLength="216" x="11" y="150.6606">Neste exemplo, o usu&#225;rio poderia</text><text fill="#000000" font-family="sans-serif" font-size="13" lengthAdjust="spacing" textLength="45" x="11" y="165.7935">ser um</text><text fill="#000000" font-family="sans-serif" font-size="13" font-weight="bold" lengthAdjust="spacing" textLength="54" x="60" y="165.7935">m&#233;dico</text><text fill="#000000" font-family="sans-serif" font-size="13" lengthAdjust="spacing" textLength="41" x="118" y="165.7935">ou um</text><text fill="#000000" font-family="sans-serif" font-size="13" font-weight="bold" lengthAdjust="spacing" textLength="64" x="163" y="165.7935">paciente</text><text fill="#000000" font-family="sans-serif" font-size="13" lengthAdjust="spacing" textLength="4" x="227" y="165.7935">.</text><polygon fill="#181818" points="436,211.125,446,215.125,436,219.125,440,215.125" style="stroke:#181818;stroke-width:1.0;"/><line style="stroke:#181818;stroke-width:1.0;" x1="125" x2="442" y1="215.125" y2="215.125"/><text fill="#000000" font-family="sans-serif" font-size="13" lengthAdjust="spacing" textLength="304" x="132" y="194.9263">GET /appointments/{appointmentId}/feedbacks</text><text fill="#000000" font-family="sans-serif" font-size="13" lengthAdjust="spacing" textLength="78" x="132" y="210.0591">(Bearer JWT)</text><polygon fill="#181818" points="614,240.2578,624,244.2578,614,248.2578,618,244.2578" style="stroke:#181818;stroke-width:1.0;"/><line style="stroke:#181818;stroke-width:1.0;" x1="458" x2="620" y1="244.2578" y2="244.2578"/><text fill="#000000" font-family="sans-serif" font-size="13" lengthAdjust="spacing" textLength="144" x="465" y="239.1919">Carregar os feedbacks</text><polygon fill="#181818" points="469,269.3906,459,273.3906,469,277.3906,465,273.3906" style="stroke:#181818;stroke-width:1.0;"/><line style="stroke:#181818;stroke-width:1.0;stroke-dasharray:2.0,2.0;" x1="463" x2="625" y1="273.3906" y2="273.3906"/><text fill="#000000" font-family="sans-serif" font-size="13" lengthAdjust="spacing" textLength="138" x="475" y="268.3247">Retorna os feedbacks</text><polygon fill="#181818" points="136,298.5234,126,302.5234,136,306.5234,132,302.5234" style="stroke:#181818;stroke-width:1.0;"/><line style="stroke:#181818;stroke-width:1.0;stroke-dasharray:2.0,2.0;" x1="130" x2="452" y1="302.5234" y2="302.5234"/><text fill="#000000" font-family="sans-serif" font-size="13" lengthAdjust="spacing" textLength="46" x="142" y="297.4575">200 OK</text><!--SRC=[VL5DIyGm4BtFhnXwqk3QnMCFWj-eu8BkiXT1fiaemMqIahG8ue_nkB-ZVynqQtKNghUyDpFllPb47LUCipAswmelcLL9yZK0a8pMOxO8x3EaW7LwW2CVjTIEJCJin3chJQmuWGVsZPQywQHV_Ydq_ExWEKKgAVJTwXi061iPRSE-zxhZa32_SULMzW1jOklsqskBpYhscY1qhHKAKRLhfQKL0ctTCuwaJluin26mKTXf0tIwE3aUIrZWrSKSywrAoD-tqBNwo9-7wpoQlLCcdyHkblFzpQrqGodjsEeZN9TXsBl0C_AUNyYZ3VXZ0KCT9ty5lkVqGuPsnqRTaaAtUe57qodERa7nludX2m00]--></g></svg>