<?xml version="1.0" encoding="us-ascii" standalone="no"?><svg xmlns="http://www.w3.org/2000/svg" xmlns:xlink="http://www.w3.org/1999/xlink" contentStyleType="text/css" height="550px" preserveAspectRatio="none" style="width:653px;height:550px;background:#FFFFFF;" version="1.1" viewBox="0 0 653 550" width="653px" zoomAndPan="magnify"><defs/><g><text fill="#000000" font-family="sans-serif" font-size="14" font-weight="bold" lengthAdjust="spacing" textLength="141" x="255" y="27.9951">Getting Files Flow</text><rect fill="#FFFFFF" height="237.0625" style="stroke:#181818;stroke-width:1.0;" width="10" x="398" y="215.125"/><line style="stroke:#181818;stroke-width:0.5;stroke-dasharray:5.0,5.0;" x1="115" x2="115" y1="118.5938" y2="470.1875"/><line style="stroke:#181818;stroke-width:0.5;stroke-dasharray:5.0,5.0;" x1="402.5" x2="402.5" y1="118.5938" y2="470.1875"/><line style="stroke:#181818;stroke-width:0.5;stroke-dasharray:5.0,5.0;" x1="607" x2="607" y1="118.5938" y2="470.1875"/><text fill="#000000" font-family="sans-serif" font-size="14" lengthAdjust="spacing" textLength="32" x="96" y="115.292">User</text><ellipse cx="115" cy="50.7969" fill="#E2E2F0" rx="8" ry="8" style="stroke:#181818;stroke-width:0.5;"/><path d="M115,58.7969 L115,85.7969 M102,66.7969 L128,66.7969 M115,85.7969 L102,100.7969 M115,85.7969 L128,100.7969 " fill="none" style="stroke:#181818;stroke-width:0.5;"/><text fill="#000000" font-family="sans-serif" font-size="14" lengthAdjust="spacing" textLength="32" x="96" y="482.1826">User</text><ellipse cx="115" cy="493.9844" fill="#E2E2F0" rx="8" ry="8" style="stroke:#181818;stroke-width:0.5;"/><path d="M115,501.9844 L115,528.9844 M102,509.9844 L128,509.9844 M115,528.9844 L102,543.9844 M115,528.9844 L128,543.9844 " fill="none" style="stroke:#181818;stroke-width:0.5;"/><rect fill="#E2E2F0" height="30.2969" rx="2.5" ry="2.5" style="stroke:#181818;stroke-width:0.5;" width="157" x="324.5" y="87.2969"/><text fill="#000000" font-family="sans-serif" font-size="14" lengthAdjust="spacing" textLength="143" x="331.5" y="107.292">Appointment Service</text><rect fill="#E2E2F0" height="30.2969" rx="2.5" ry="2.5" style="stroke:#181818;stroke-width:0.5;" width="157" x="324.5" y="469.1875"/><text fill="#000000" font-family="sans-serif" font-size="14" lengthAdjust="spacing" textLength="143" x="331.5" y="489.1826">Appointment Service</text><rect fill="#E2E2F0" height="30.2969" rx="2.5" ry="2.5" style="stroke:#181818;stroke-width:0.5;" width="80" x="567" y="87.2969"/><text fill="#000000" font-family="sans-serif" font-size="14" lengthAdjust="spacing" textLength="66" x="574" y="107.292">Database</text><rect fill="#E2E2F0" height="30.2969" rx="2.5" ry="2.5" style="stroke:#181818;stroke-width:0.5;" width="80" x="567" y="469.1875"/><text fill="#000000" font-family="sans-serif" font-size="14" lengthAdjust="spacing" textLength="66" x="574" y="489.1826">Database</text><rect fill="#FFFFFF" height="237.0625" style="stroke:#181818;stroke-width:1.0;" width="10" x="398" y="215.125"/><path d="M5,133.5938 L5,173.5938 L225,173.5938 L225,143.5938 L215,133.5938 L5,133.5938 " fill="#FEFFDD" style="stroke:#181818;stroke-width:0.5;"/><path d="M215,133.5938 L215,143.5938 L225,143.5938 L215,133.5938 " fill="#FEFFDD" style="stroke:#181818;stroke-width:0.5;"/><text fill="#000000" font-family="sans-serif" font-size="13" lengthAdjust="spacing" textLength="199" x="11" y="150.6606">Neste exemplo, o usu&#225;rio deve</text><text fill="#000000" font-family="sans-serif" font-size="13" lengthAdjust="spacing" textLength="45" x="11" y="165.7935">ser um</text><text fill="#000000" font-family="sans-serif" font-size="13" font-weight="bold" lengthAdjust="spacing" textLength="54" x="60" y="165.7935">m&#233;dico</text><text fill="#000000" font-family="sans-serif" font-size="13" lengthAdjust="spacing" textLength="4" x="114" y="165.7935">.</text><polygon fill="#181818" points="386,211.125,396,215.125,386,219.125,390,215.125" style="stroke:#181818;stroke-width:1.0;"/><line style="stroke:#181818;stroke-width:1.0;" x1="115" x2="392" y1="215.125" y2="215.125"/><text fill="#000000" font-family="sans-serif" font-size="13" lengthAdjust="spacing" textLength="264" x="122" y="194.9263">GET /appointments/{appointmentId}/files</text><text fill="#000000" font-family="sans-serif" font-size="13" lengthAdjust="spacing" textLength="78" x="122" y="210.0591">(Bearer JWT)</text><path d="M289,228.125 L289,283.125 L517,283.125 L517,238.125 L507,228.125 L289,228.125 " fill="#FEFFDD" style="stroke:#181818;stroke-width:0.5;"/><path d="M507,228.125 L507,238.125 L517,238.125 L507,228.125 " fill="#FEFFDD" style="stroke:#181818;stroke-width:0.5;"/><text fill="#000000" font-family="sans-serif" font-size="13" lengthAdjust="spacing" textLength="204" x="295" y="245.1919">O m&#233;dico deve ser autorizado a</text><text fill="#000000" font-family="sans-serif" font-size="13" lengthAdjust="spacing" textLength="207" x="295" y="260.3247">acessar os arquivos para aquela</text><text fill="#000000" font-family="sans-serif" font-size="13" lengthAdjust="spacing" textLength="125" x="295" y="275.4575">consulta espec&#237;fica.</text><line style="stroke:#181818;stroke-width:1.0;" x1="408" x2="450" y1="309.6563" y2="309.6563"/><line style="stroke:#181818;stroke-width:1.0;" x1="450" x2="450" y1="309.6563" y2="322.6563"/><line style="stroke:#181818;stroke-width:1.0;" x1="409" x2="450" y1="322.6563" y2="322.6563"/><polygon fill="#181818" points="419,318.6563,409,322.6563,419,326.6563,415,322.6563" style="stroke:#181818;stroke-width:1.0;"/><text fill="#000000" font-family="sans-serif" font-size="13" lengthAdjust="spacing" textLength="162" x="415" y="304.5903">Carregar arquivos access</text><polygon fill="#181818" points="419,347.7891,409,351.7891,419,355.7891,415,351.7891" style="stroke:#181818;stroke-width:1.0;"/><line style="stroke:#181818;stroke-width:1.0;stroke-dasharray:2.0,2.0;" x1="413" x2="606" y1="351.7891" y2="351.7891"/><text fill="#000000" font-family="sans-serif" font-size="13" lengthAdjust="spacing" textLength="175" x="425" y="346.7231">Retorna os arquivos access</text><line style="stroke:#181818;stroke-width:1.0;" x1="408" x2="450" y1="380.9219" y2="380.9219"/><line style="stroke:#181818;stroke-width:1.0;" x1="450" x2="450" y1="380.9219" y2="393.9219"/><line style="stroke:#181818;stroke-width:1.0;" x1="409" x2="450" y1="393.9219" y2="393.9219"/><polygon fill="#181818" points="419,389.9219,409,393.9219,419,397.9219,415,393.9219" style="stroke:#181818;stroke-width:1.0;"/><text fill="#000000" font-family="sans-serif" font-size="13" lengthAdjust="spacing" textLength="133" x="415" y="375.856">Carregar os arquivos</text><polygon fill="#181818" points="419,419.0547,409,423.0547,419,427.0547,415,423.0547" style="stroke:#181818;stroke-width:1.0;"/><line style="stroke:#181818;stroke-width:1.0;stroke-dasharray:2.0,2.0;" x1="413" x2="606" y1="423.0547" y2="423.0547"/><text fill="#000000" font-family="sans-serif" font-size="13" lengthAdjust="spacing" textLength="127" x="425" y="417.9888">Retorna os arquivos</text><polygon fill="#181818" points="126,448.1875,116,452.1875,126,456.1875,122,452.1875" style="stroke:#181818;stroke-width:1.0;"/><line style="stroke:#181818;stroke-width:1.0;stroke-dasharray:2.0,2.0;" x1="120" x2="402" y1="452.1875" y2="452.1875"/><text fill="#000000" font-family="sans-serif" font-size="13" lengthAdjust="spacing" textLength="46" x="132" y="447.1216">200 OK</text><!--SRC=[dL9DImCn4BtdLmmzwM9jyTY3u5UB2XQquaMGCPcMWTracsHNKVmn7ZtuA_h7dBHLjx1ww2tpzTwRDuaSSu8HnSXs1aFEAS0mTqzAeOxEG-SsaEy01gZaeKhqaJMNQ2DqZihIiOq5IN13lcPDoqxypJ-4LNvpy1GZFc9OTPjre9HraS3Lv5TSLnGafcSgojpjWPDijNZtxC1GJIgalWAoh5Xy6DOko_OLMGC9HQc40Dt3DYq369rDeDUeXDvh8petRxrfCkBUxXmJUW6wk9liBXtX6aLJsu8DzMtbCQnbBiL3KeUL6CmlQ1oWO5C8wC69VNvUSIqFyGm1vnNbgBIpeSeZ0eMIzE9poXgR-xPm_hd-2NfFCo7xOKATwDNtAQ3xr-WrYMQB6pBNmrifQE1inzvEAm3f0mpWeD-7yQKozE_jlW00]--></g></svg>