<?xml version="1.0" encoding="us-ascii" standalone="no"?><svg xmlns="http://www.w3.org/2000/svg" xmlns:xlink="http://www.w3.org/1999/xlink" contentStyleType="text/css" height="516px" preserveAspectRatio="none" style="width:520px;height:516px;background:#FFFFFF;" version="1.1" viewBox="0 0 520 516" width="520px" zoomAndPan="magnify"><defs/><g><text fill="#000000" font-family="sans-serif" font-size="14" font-weight="bold" lengthAdjust="spacing" textLength="166" x="176.25" y="27.9951">Uploading a File Flow</text><rect fill="#FFFFFF" height="202.9297" style="stroke:#181818;stroke-width:1.0;" width="10" x="216" y="215.125"/><line style="stroke:#181818;stroke-width:0.5;stroke-dasharray:5.0,5.0;" x1="113" x2="113" y1="118.5938" y2="436.0547"/><line style="stroke:#181818;stroke-width:0.5;stroke-dasharray:5.0,5.0;" x1="220.5" x2="220.5" y1="118.5938" y2="436.0547"/><line style="stroke:#181818;stroke-width:0.5;stroke-dasharray:5.0,5.0;" x1="374.5" x2="374.5" y1="118.5938" y2="436.0547"/><line style="stroke:#181818;stroke-width:0.5;stroke-dasharray:5.0,5.0;" x1="474.5" x2="474.5" y1="118.5938" y2="436.0547"/><text fill="#000000" font-family="sans-serif" font-size="14" lengthAdjust="spacing" textLength="32" x="94" y="115.292">User</text><ellipse cx="113" cy="50.7969" fill="#E2E2F0" rx="8" ry="8" style="stroke:#181818;stroke-width:0.5;"/><path d="M113,58.7969 L113,85.7969 M100,66.7969 L126,66.7969 M113,85.7969 L100,100.7969 M113,85.7969 L126,100.7969 " fill="none" style="stroke:#181818;stroke-width:0.5;"/><text fill="#000000" font-family="sans-serif" font-size="14" lengthAdjust="spacing" textLength="32" x="94" y="448.0498">User</text><ellipse cx="113" cy="459.8516" fill="#E2E2F0" rx="8" ry="8" style="stroke:#181818;stroke-width:0.5;"/><path d="M113,467.8516 L113,494.8516 M100,475.8516 L126,475.8516 M113,494.8516 L100,509.8516 M113,494.8516 L126,509.8516 " fill="none" style="stroke:#181818;stroke-width:0.5;"/><rect fill="#E2E2F0" height="30.2969" rx="2.5" ry="2.5" style="stroke:#181818;stroke-width:0.5;" width="157" x="142.5" y="87.2969"/><text fill="#000000" font-family="sans-serif" font-size="14" lengthAdjust="spacing" textLength="143" x="149.5" y="107.292">Appointment Service</text><rect fill="#E2E2F0" height="30.2969" rx="2.5" ry="2.5" style="stroke:#181818;stroke-width:0.5;" width="157" x="142.5" y="435.0547"/><text fill="#000000" font-family="sans-serif" font-size="14" lengthAdjust="spacing" textLength="143" x="149.5" y="455.0498">Appointment Service</text><rect fill="#E2E2F0" height="30.2969" style="stroke:#181818;stroke-width:0.5;" width="95" x="329.5" y="83.2969"/><rect fill="#E2E2F0" height="30.2969" style="stroke:#181818;stroke-width:0.5;" width="95" x="325.5" y="87.2969"/><text fill="#000000" font-family="sans-serif" font-size="14" lengthAdjust="spacing" textLength="81" x="332.5" y="107.292">File Storage</text><rect fill="#E2E2F0" height="30.2969" style="stroke:#181818;stroke-width:0.5;" width="95" x="329.5" y="435.0547"/><rect fill="#E2E2F0" height="30.2969" style="stroke:#181818;stroke-width:0.5;" width="95" x="325.5" y="439.0547"/><text fill="#000000" font-family="sans-serif" font-size="14" lengthAdjust="spacing" textLength="81" x="332.5" y="459.0498">File Storage</text><rect fill="#E2E2F0" height="30.2969" rx="2.5" ry="2.5" style="stroke:#181818;stroke-width:0.5;" width="80" x="434.5" y="87.2969"/><text fill="#000000" font-family="sans-serif" font-size="14" lengthAdjust="spacing" textLength="66" x="441.5" y="107.292">Database</text><rect fill="#E2E2F0" height="30.2969" rx="2.5" ry="2.5" style="stroke:#181818;stroke-width:0.5;" width="80" x="434.5" y="435.0547"/><text fill="#000000" font-family="sans-serif" font-size="14" lengthAdjust="spacing" textLength="66" x="441.5" y="455.0498">Database</text><rect fill="#FFFFFF" height="202.9297" style="stroke:#181818;stroke-width:1.0;" width="10" x="216" y="215.125"/><path d="M5,133.5938 L5,173.5938 L221,173.5938 L221,143.5938 L211,133.5938 L5,133.5938 " fill="#FEFFDD" style="stroke:#181818;stroke-width:0.5;"/><path d="M211,133.5938 L211,143.5938 L221,143.5938 L211,133.5938 " fill="#FEFFDD" style="stroke:#181818;stroke-width:0.5;"/><text fill="#000000" font-family="sans-serif" font-size="13" lengthAdjust="spacing" textLength="195" x="11" y="150.6606">In this example, the user must</text><text fill="#000000" font-family="sans-serif" font-size="13" lengthAdjust="spacing" textLength="28" x="11" y="165.7935">be a</text><text fill="#000000" font-family="sans-serif" font-size="13" font-weight="bold" lengthAdjust="spacing" textLength="53" x="43" y="165.7935">patient</text><text fill="#000000" font-family="sans-serif" font-size="13" lengthAdjust="spacing" textLength="4" x="96" y="165.7935">.</text><polygon fill="#181818" points="204,211.125,214,215.125,204,219.125,208,215.125" style="stroke:#181818;stroke-width:1.0;"/><line style="stroke:#181818;stroke-width:1.0;" x1="113" x2="210" y1="215.125" y2="215.125"/><text fill="#000000" font-family="sans-serif" font-size="13" lengthAdjust="spacing" textLength="67" x="120" y="194.9263">POST /files</text><text fill="#000000" font-family="sans-serif" font-size="13" lengthAdjust="spacing" textLength="78" x="120" y="210.0591">(Bearer JWT)</text><line style="stroke:#181818;stroke-width:1.0;" x1="226" x2="268" y1="259.3906" y2="259.3906"/><line style="stroke:#181818;stroke-width:1.0;" x1="268" x2="268" y1="259.3906" y2="272.3906"/><line style="stroke:#181818;stroke-width:1.0;" x1="227" x2="268" y1="272.3906" y2="272.3906"/><polygon fill="#181818" points="237,268.3906,227,272.3906,237,276.3906,233,272.3906" style="stroke:#181818;stroke-width:1.0;"/><text fill="#000000" font-family="sans-serif" font-size="13" lengthAdjust="spacing" textLength="99" x="233" y="239.1919">Validate the file</text><text fill="#000000" font-family="sans-serif" font-size="13" lengthAdjust="spacing" textLength="42" x="233" y="254.3247">details</text><polygon fill="#181818" points="363,297.5234,373,301.5234,363,305.5234,367,301.5234" style="stroke:#181818;stroke-width:1.0;"/><line style="stroke:#181818;stroke-width:1.0;" x1="226" x2="369" y1="301.5234" y2="301.5234"/><text fill="#000000" font-family="sans-serif" font-size="13" lengthAdjust="spacing" textLength="92" x="233" y="296.4575">Upload the file</text><polygon fill="#181818" points="237,326.6563,227,330.6563,237,334.6563,233,330.6563" style="stroke:#181818;stroke-width:1.0;"/><line style="stroke:#181818;stroke-width:1.0;stroke-dasharray:2.0,2.0;" x1="231" x2="374" y1="330.6563" y2="330.6563"/><text fill="#000000" font-family="sans-serif" font-size="13" lengthAdjust="spacing" textLength="125" x="243" y="325.5903">Returns the file URL</text><polygon fill="#181818" points="462.5,355.7891,472.5,359.7891,462.5,363.7891,466.5,359.7891" style="stroke:#181818;stroke-width:1.0;"/><line style="stroke:#181818;stroke-width:1.0;" x1="226" x2="468.5" y1="359.7891" y2="359.7891"/><text fill="#000000" font-family="sans-serif" font-size="13" lengthAdjust="spacing" textLength="128" x="233" y="354.7231">Store the file details</text><polygon fill="#181818" points="237,384.9219,227,388.9219,237,392.9219,233,388.9219" style="stroke:#181818;stroke-width:1.0;"/><line style="stroke:#181818;stroke-width:1.0;stroke-dasharray:2.0,2.0;" x1="231" x2="473.5" y1="388.9219" y2="388.9219"/><text fill="#000000" font-family="sans-serif" font-size="13" lengthAdjust="spacing" textLength="66" x="243" y="383.856">File stored</text><polygon fill="#181818" points="124,414.0547,114,418.0547,124,422.0547,120,418.0547" style="stroke:#181818;stroke-width:1.0;"/><line style="stroke:#181818;stroke-width:1.0;stroke-dasharray:2.0,2.0;" x1="118" x2="220" y1="418.0547" y2="418.0547"/><text fill="#000000" font-family="sans-serif" font-size="13" lengthAdjust="spacing" textLength="79" x="130" y="412.9888">201 Created</text><!--SRC=[VL7BJiCm4BpxArOvGKHv7ND0ug5A82HGsy2bKhMDbsB9jIrxK_XyRAUXHKguUMTdTyOxh5WJr4vRbCfi066g8Z3Lzai8RDXwAEf0lW0CqCQ7SEXPDSgXOIXkdRFAy9PYCIU_Kmrb9XxmLUXmqLYjgM5bJO0YgypZUjnq4nyHM8KE-AlnW8nh31rDxWiXZ6K2koFVsNeqm9yg07tZrcawYnNb3cpRm69DyMjbwP1Lz5IMvuACXBH3YCoQt0oPhk3rPRw0Y-GkBCt97Q6FvAVtnMa-ZzfXT37qsm5iLECDjP9fKVASf9P64gFIOMpDyRMgVNo_q-Au2vCnrHbnwsCM_HZKi-SnlVxiLSxiO1HwdprXN2uddaoH75Q9Woc92gulh-3UKpo859B-lV8F]--></g></svg>