<?xml version="1.0" encoding="us-ascii" standalone="no"?><svg xmlns="http://www.w3.org/2000/svg" xmlns:xlink="http://www.w3.org/1999/xlink" contentStyleType="text/css" height="501px" preserveAspectRatio="none" style="width:585px;height:501px;background:#FFFFFF;" version="1.1" viewBox="0 0 585 501" width="585px" zoomAndPan="magnify"><defs/><g><text fill="#000000" font-family="sans-serif" font-size="14" font-weight="bold" lengthAdjust="spacing" textLength="166" x="208.5" y="27.9951">Uploading a File Flow</text><rect fill="#FFFFFF" height="187.7969" style="stroke:#181818;stroke-width:1.0;" width="10" x="217.5" y="215.125"/><line style="stroke:#181818;stroke-width:0.5;stroke-dasharray:5.0,5.0;" x1="115" x2="115" y1="118.5938" y2="420.9219"/><line style="stroke:#181818;stroke-width:0.5;stroke-dasharray:5.0,5.0;" x1="222" x2="222" y1="118.5938" y2="420.9219"/><line style="stroke:#181818;stroke-width:0.5;stroke-dasharray:5.0,5.0;" x1="439" x2="439" y1="118.5938" y2="420.9219"/><line style="stroke:#181818;stroke-width:0.5;stroke-dasharray:5.0,5.0;" x1="539" x2="539" y1="118.5938" y2="420.9219"/><text fill="#000000" font-family="sans-serif" font-size="14" lengthAdjust="spacing" textLength="32" x="96" y="115.292">User</text><ellipse cx="115" cy="50.7969" fill="#E2E2F0" rx="8" ry="8" style="stroke:#181818;stroke-width:0.5;"/><path d="M115,58.7969 L115,85.7969 M102,66.7969 L128,66.7969 M115,85.7969 L102,100.7969 M115,85.7969 L128,100.7969 " fill="none" style="stroke:#181818;stroke-width:0.5;"/><text fill="#000000" font-family="sans-serif" font-size="14" lengthAdjust="spacing" textLength="32" x="96" y="432.917">User</text><ellipse cx="115" cy="444.7188" fill="#E2E2F0" rx="8" ry="8" style="stroke:#181818;stroke-width:0.5;"/><path d="M115,452.7188 L115,479.7188 M102,460.7188 L128,460.7188 M115,479.7188 L102,494.7188 M115,479.7188 L128,494.7188 " fill="none" style="stroke:#181818;stroke-width:0.5;"/><rect fill="#E2E2F0" height="30.2969" rx="2.5" ry="2.5" style="stroke:#181818;stroke-width:0.5;" width="157" x="144" y="87.2969"/><text fill="#000000" font-family="sans-serif" font-size="14" lengthAdjust="spacing" textLength="143" x="151" y="107.292">Appointment Service</text><rect fill="#E2E2F0" height="30.2969" rx="2.5" ry="2.5" style="stroke:#181818;stroke-width:0.5;" width="157" x="144" y="419.9219"/><text fill="#000000" font-family="sans-serif" font-size="14" lengthAdjust="spacing" textLength="143" x="151" y="439.917">Appointment Service</text><rect fill="#E2E2F0" height="30.2969" style="stroke:#181818;stroke-width:0.5;" width="95" x="394" y="83.2969"/><rect fill="#E2E2F0" height="30.2969" style="stroke:#181818;stroke-width:0.5;" width="95" x="390" y="87.2969"/><text fill="#000000" font-family="sans-serif" font-size="14" lengthAdjust="spacing" textLength="81" x="397" y="107.292">File Storage</text><rect fill="#E2E2F0" height="30.2969" style="stroke:#181818;stroke-width:0.5;" width="95" x="394" y="419.9219"/><rect fill="#E2E2F0" height="30.2969" style="stroke:#181818;stroke-width:0.5;" width="95" x="390" y="423.9219"/><text fill="#000000" font-family="sans-serif" font-size="14" lengthAdjust="spacing" textLength="81" x="397" y="443.917">File Storage</text><rect fill="#E2E2F0" height="30.2969" rx="2.5" ry="2.5" style="stroke:#181818;stroke-width:0.5;" width="80" x="499" y="87.2969"/><text fill="#000000" font-family="sans-serif" font-size="14" lengthAdjust="spacing" textLength="66" x="506" y="107.292">Database</text><rect fill="#E2E2F0" height="30.2969" rx="2.5" ry="2.5" style="stroke:#181818;stroke-width:0.5;" width="80" x="499" y="419.9219"/><text fill="#000000" font-family="sans-serif" font-size="14" lengthAdjust="spacing" textLength="66" x="506" y="439.917">Database</text><rect fill="#FFFFFF" height="187.7969" style="stroke:#181818;stroke-width:1.0;" width="10" x="217.5" y="215.125"/><path d="M5,133.5938 L5,173.5938 L225,173.5938 L225,143.5938 L215,133.5938 L5,133.5938 " fill="#FEFFDD" style="stroke:#181818;stroke-width:0.5;"/><path d="M215,133.5938 L215,143.5938 L225,143.5938 L215,133.5938 " fill="#FEFFDD" style="stroke:#181818;stroke-width:0.5;"/><text fill="#000000" font-family="sans-serif" font-size="13" lengthAdjust="spacing" textLength="199" x="11" y="150.6606">Neste exemplo, o usu&#225;rio deve</text><text fill="#000000" font-family="sans-serif" font-size="13" lengthAdjust="spacing" textLength="45" x="11" y="165.7935">ser um</text><text fill="#000000" font-family="sans-serif" font-size="13" font-weight="bold" lengthAdjust="spacing" textLength="64" x="60" y="165.7935">paciente</text><text fill="#000000" font-family="sans-serif" font-size="13" lengthAdjust="spacing" textLength="4" x="124" y="165.7935">.</text><polygon fill="#181818" points="205.5,211.125,215.5,215.125,205.5,219.125,209.5,215.125" style="stroke:#181818;stroke-width:1.0;"/><line style="stroke:#181818;stroke-width:1.0;" x1="115" x2="211.5" y1="215.125" y2="215.125"/><text fill="#000000" font-family="sans-serif" font-size="13" lengthAdjust="spacing" textLength="67" x="122" y="194.9263">POST /files</text><text fill="#000000" font-family="sans-serif" font-size="13" lengthAdjust="spacing" textLength="78" x="122" y="210.0591">(Bearer JWT)</text><line style="stroke:#181818;stroke-width:1.0;" x1="227.5" x2="269.5" y1="244.2578" y2="244.2578"/><line style="stroke:#181818;stroke-width:1.0;" x1="269.5" x2="269.5" y1="244.2578" y2="257.2578"/><line style="stroke:#181818;stroke-width:1.0;" x1="228.5" x2="269.5" y1="257.2578" y2="257.2578"/><polygon fill="#181818" points="238.5,253.2578,228.5,257.2578,238.5,261.2578,234.5,257.2578" style="stroke:#181818;stroke-width:1.0;"/><text fill="#000000" font-family="sans-serif" font-size="13" lengthAdjust="spacing" textLength="193" x="234.5" y="239.1919">Validar os detalhes do arquivo</text><polygon fill="#181818" points="427.5,282.3906,437.5,286.3906,427.5,290.3906,431.5,286.3906" style="stroke:#181818;stroke-width:1.0;"/><line style="stroke:#181818;stroke-width:1.0;" x1="227.5" x2="433.5" y1="286.3906" y2="286.3906"/><text fill="#000000" font-family="sans-serif" font-size="13" lengthAdjust="spacing" textLength="119" x="234.5" y="281.3247">Carregar o arquivo</text><polygon fill="#181818" points="238.5,311.5234,228.5,315.5234,238.5,319.5234,234.5,315.5234" style="stroke:#181818;stroke-width:1.0;"/><line style="stroke:#181818;stroke-width:1.0;stroke-dasharray:2.0,2.0;" x1="232.5" x2="438.5" y1="315.5234" y2="315.5234"/><text fill="#000000" font-family="sans-serif" font-size="13" lengthAdjust="spacing" textLength="162" x="244.5" y="310.4575">Retorna a URL do arquivo</text><polygon fill="#181818" points="527,340.6563,537,344.6563,527,348.6563,531,344.6563" style="stroke:#181818;stroke-width:1.0;"/><line style="stroke:#181818;stroke-width:1.0;" x1="227.5" x2="533" y1="344.6563" y2="344.6563"/><text fill="#000000" font-family="sans-serif" font-size="13" lengthAdjust="spacing" textLength="220" x="234.5" y="339.5903">Armazenar os detalhes do arquivo</text><polygon fill="#181818" points="238.5,369.7891,228.5,373.7891,238.5,377.7891,234.5,373.7891" style="stroke:#181818;stroke-width:1.0;"/><line style="stroke:#181818;stroke-width:1.0;stroke-dasharray:2.0,2.0;" x1="232.5" x2="538" y1="373.7891" y2="373.7891"/><text fill="#000000" font-family="sans-serif" font-size="13" lengthAdjust="spacing" textLength="133" x="244.5" y="368.7231">Arquivo armazenado</text><polygon fill="#181818" points="126,398.9219,116,402.9219,126,406.9219,122,402.9219" style="stroke:#181818;stroke-width:1.0;"/><line style="stroke:#181818;stroke-width:1.0;stroke-dasharray:2.0,2.0;" x1="120" x2="221.5" y1="402.9219" y2="402.9219"/><text fill="#000000" font-family="sans-serif" font-size="13" lengthAdjust="spacing" textLength="69" x="132" y="397.856">201 Criado</text><!--SRC=[ZL7BJWCn3BpdAwmzmOhoEku1gHJrW12Wbi85gJ8RKonbaoL95yJVy2ty64v3eKXTnCqUZMV6TkHe26QjSQZPBW1Xp0ACZNjH2kleF1IpGBu03B2KGhNe8zVSeerG3DlMiOqDIJCbtt5DAoR-uFEGSLKxOwYEx6o0OkKo5NbSv8b70UOX0xyzpZ3Y0uPCqr-DKjP50jUHpx4kAKXFhzJ8BdlW15r-l7jseAaZ5HAlWR9iiMP9HMMvhyXgI39A9GaOd6pBNS7rrVG63bB0S6ztJWczaC_lRdPN5-8EnNZRmbkmNezRDApHWvCLAQ9v8YaSe7zUSkVwf3QFLi48lQT54lcUsoJ0eCzyGiAmAC-VJIx-ORj-GWL3t-0RsVxWQsg_-J0pPI9BwHvRcKzVgk3uy0X6dXDHqvyF-0G0]--></g></svg>